<svg id="svg" version="1.1" xmlns="http://www.w3.org/2000/svg" xmlns:xlink="http://www.w3.org/1999/xlink" width="400" height="317.3333333333333" viewBox="0, 0, 400,317.3333333333333"><g id="svgg"><path id="path0" d="M259.356 2.278 C 258.750 2.833,258.296 3.478,258.348 3.712 C 258.400 3.946,258.257 4.099,258.031 4.053 C 257.804 4.006,257.655 4.147,257.698 4.365 C 257.745 4.598,257.450 4.762,256.984 4.762 C 256.548 4.762,256.190 4.907,256.190 5.084 C 256.190 5.532,250.230 11.101,249.743 11.108 C 249.602 11.110,249.575 11.254,249.683 11.429 C 249.790 11.603,249.737 11.746,249.564 11.746 C 249.391 11.746,248.576 12.457,247.753 13.327 C 246.930 14.196,245.990 14.992,245.663 15.096 C 245.337 15.199,245.152 15.416,245.252 15.578 C 245.352 15.740,245.301 15.873,245.137 15.873 C 244.793 15.873,242.331 18.031,240.700 19.762 C 240.083 20.417,239.459 20.952,239.313 20.952 C 239.167 20.952,238.784 21.202,238.461 21.508 C 238.138 21.813,237.061 22.778,236.068 23.651 C 235.075 24.524,233.798 25.667,233.231 26.190 C 232.664 26.714,231.450 27.768,230.532 28.532 C 229.614 29.296,228.661 30.313,228.414 30.791 C 228.122 31.355,227.614 31.731,226.969 31.860 C 226.342 31.986,225.912 32.295,225.807 32.696 C 225.714 33.050,225.374 33.333,225.042 33.333 C 224.713 33.333,224.444 33.454,224.444 33.602 C 224.444 33.750,224.168 34.000,223.830 34.158 C 223.492 34.315,222.600 34.978,221.846 35.629 C 221.093 36.281,219.548 37.564,218.413 38.481 C 217.278 39.397,216.278 40.225,216.190 40.320 C 216.103 40.415,215.389 40.988,214.603 41.593 C 213.817 42.198,213.127 42.802,213.069 42.934 C 213.011 43.066,212.761 43.175,212.513 43.175 C 212.266 43.175,212.063 43.308,212.063 43.471 C 212.063 43.634,211.813 43.847,211.508 43.945 C 211.202 44.043,210.310 44.698,209.524 45.401 C 208.738 46.104,207.524 47.069,206.825 47.546 C 206.127 48.023,205.508 48.520,205.450 48.651 C 205.392 48.782,205.137 48.889,204.884 48.889 C 204.631 48.889,204.342 49.103,204.242 49.365 C 204.141 49.627,203.860 49.841,203.617 49.841 C 203.374 49.841,203.175 49.984,203.175 50.159 C 203.175 50.333,203.037 50.476,202.868 50.476 C 202.700 50.476,202.141 50.869,201.627 51.349 C 200.136 52.742,198.918 53.642,198.519 53.647 C 198.315 53.649,198.101 53.775,198.042 53.927 C 197.984 54.079,197.098 54.738,196.072 55.390 C 195.047 56.043,194.135 56.855,194.047 57.195 C 193.954 57.548,193.702 57.744,193.460 57.650 C 193.226 57.561,192.826 57.696,192.572 57.950 C 192.317 58.204,192.021 58.413,191.913 58.413 C 191.805 58.413,191.360 58.770,190.924 59.206 C 190.487 59.643,189.992 60.000,189.824 60.000 C 189.425 60.000,187.441 61.912,187.525 62.216 C 187.560 62.344,187.231 62.410,186.793 62.362 C 186.177 62.294,186.074 62.366,186.335 62.681 C 186.596 62.996,186.492 63.068,185.876 63.000 C 185.438 62.952,185.079 63.043,185.079 63.203 C 185.079 63.362,184.899 63.492,184.679 63.492 C 184.459 63.492,183.709 63.993,183.012 64.606 C 182.316 65.218,181.032 66.179,180.159 66.742 C 179.286 67.304,178.383 67.946,178.152 68.168 C 177.921 68.390,177.590 68.571,177.416 68.571 C 177.243 68.571,176.574 68.964,175.931 69.444 C 175.289 69.925,174.619 70.422,174.445 70.551 C 174.270 70.679,173.663 71.156,173.095 71.611 C 172.528 72.065,172.063 72.353,172.063 72.250 C 172.063 72.148,171.813 72.287,171.508 72.561 C 170.688 73.295,166.217 76.394,165.181 76.946 C 164.330 77.400,162.976 78.452,161.878 79.514 C 161.602 79.781,161.283 80.000,161.170 80.000 C 160.841 80.000,157.312 82.302,157.196 82.593 C 157.138 82.738,156.883 82.857,156.630 82.857 C 156.377 82.857,156.088 83.071,155.988 83.333 C 155.887 83.595,155.659 83.810,155.481 83.810 C 155.303 83.810,154.211 84.509,153.055 85.365 C 151.898 86.220,149.810 87.678,148.413 88.606 C 147.016 89.533,145.825 90.405,145.767 90.543 C 145.709 90.681,145.495 90.796,145.291 90.799 C 145.087 90.802,144.584 91.159,144.173 91.593 C 143.762 92.026,143.282 92.381,143.107 92.381 C 142.932 92.381,142.874 92.603,142.978 92.874 C 143.082 93.145,143.038 93.286,142.879 93.188 C 142.721 93.090,142.375 93.226,142.112 93.489 C 141.848 93.753,141.418 93.968,141.156 93.968 C 140.895 93.968,140.489 94.160,140.254 94.394 C 140.020 94.629,139.483 95.005,139.061 95.231 C 138.170 95.708,137.622 96.131,136.891 96.905 C 136.603 97.210,136.220 97.461,136.041 97.462 C 135.861 97.463,135.286 97.857,134.762 98.339 C 134.238 98.820,132.845 99.847,131.667 100.620 C 130.488 101.393,129.524 102.150,129.524 102.301 C 129.524 102.453,129.381 102.489,129.206 102.381 C 129.032 102.273,128.889 102.332,128.889 102.513 C 128.889 102.693,128.496 103.049,128.016 103.304 C 127.536 103.559,126.756 104.134,126.284 104.582 C 125.811 105.030,125.302 105.397,125.153 105.397 C 125.004 105.397,124.547 105.709,124.137 106.091 C 123.473 106.709,122.445 107.453,119.201 109.665 C 118.569 110.096,118.279 110.533,118.345 110.952 C 118.420 111.418,118.370 111.475,118.157 111.164 C 117.953 110.868,117.877 111.025,117.901 111.688 C 117.921 112.210,118.059 112.561,118.209 112.468 C 118.359 112.376,118.403 113.533,118.307 115.039 C 118.211 116.545,118.258 117.778,118.411 117.778 C 118.563 117.778,118.621 118.146,118.540 118.597 C 118.458 119.047,118.514 119.340,118.665 119.246 C 118.816 119.153,118.912 119.392,118.878 119.777 C 118.845 120.161,118.904 120.619,119.010 120.794 C 119.209 121.123,119.298 121.663,119.441 123.399 C 119.486 123.959,119.797 124.617,120.131 124.861 C 120.530 125.153,120.664 125.498,120.522 125.867 C 120.404 126.177,120.442 126.593,120.607 126.792 C 120.773 126.992,120.940 128.343,120.978 129.796 C 121.016 131.248,121.164 133.031,121.307 133.758 C 121.676 135.643,122.242 139.015,122.406 140.317 C 122.718 142.786,123.492 148.145,123.645 148.889 C 123.734 149.325,123.879 150.540,123.967 151.587 C 124.242 154.865,124.473 155.873,124.949 155.873 C 125.323 155.873,125.396 157.195,125.392 163.889 C 125.389 169.126,125.282 171.740,125.083 171.429 C 124.879 171.111,124.845 171.523,124.979 172.669 C 125.126 173.924,125.081 174.324,124.814 174.159 C 124.570 174.008,124.471 174.202,124.516 174.744 C 124.553 175.191,124.653 175.556,124.738 175.556 C 125.011 175.556,126.991 173.206,127.480 172.302 C 127.740 171.821,128.092 171.429,128.262 171.429 C 128.432 171.429,128.571 171.240,128.571 171.010 C 128.571 170.779,128.893 170.293,129.286 169.929 C 130.282 169.006,131.897 167.178,131.901 166.968 C 131.903 166.871,132.439 166.228,133.092 165.539 C 133.746 164.850,134.281 164.196,134.283 164.086 C 134.284 163.976,134.821 163.308,135.476 162.601 C 136.904 161.060,137.460 160.390,137.460 160.212 C 137.460 160.075,138.680 158.609,139.906 157.271 C 140.291 156.851,140.535 156.508,140.447 156.508 C 140.360 156.508,140.617 156.162,141.017 155.739 C 142.532 154.141,143.090 153.485,143.130 153.253 C 143.153 153.121,143.565 152.560,144.046 152.005 C 148.670 146.671,149.196 146.032,148.963 146.032 C 148.855 146.032,148.984 145.853,149.249 145.635 C 149.514 145.417,150.500 144.238,151.441 143.016 C 152.383 141.794,153.443 140.505,153.799 140.152 C 154.154 139.798,155.587 138.085,156.984 136.344 C 158.381 134.602,160.078 132.570,160.755 131.827 C 161.432 131.084,161.890 130.476,161.774 130.476 C 161.657 130.476,162.103 129.892,162.765 129.178 C 163.427 128.465,164.094 127.659,164.247 127.388 C 164.575 126.808,165.585 125.573,166.587 124.527 C 166.980 124.116,167.302 123.696,167.302 123.593 C 167.302 123.490,167.623 123.076,168.016 122.673 C 169.648 120.999,170.000 120.575,170.000 120.283 C 170.000 120.115,170.144 119.875,170.319 119.750 C 170.495 119.626,171.020 119.024,171.487 118.413 C 171.954 117.802,172.703 116.887,173.152 116.379 C 173.601 115.872,173.968 115.336,173.968 115.189 C 173.968 115.041,174.075 114.956,174.206 115.000 C 174.337 115.044,174.444 115.005,174.444 114.913 C 174.444 114.822,174.775 114.393,175.179 113.961 C 175.583 113.528,176.512 112.394,177.243 111.440 C 177.974 110.486,178.789 109.482,179.056 109.210 C 179.322 108.937,180.393 107.646,181.435 106.341 C 182.478 105.036,183.413 103.897,183.513 103.810 C 183.613 103.722,184.315 102.794,185.074 101.746 C 185.832 100.698,186.929 99.438,187.512 98.945 C 188.095 98.452,188.571 97.845,188.571 97.596 C 188.571 97.347,188.705 97.143,188.869 97.143 C 189.032 97.143,189.767 96.286,190.502 95.238 C 191.237 94.190,191.969 93.333,192.128 93.333 C 192.288 93.333,192.337 93.202,192.238 93.041 C 192.139 92.881,192.411 92.471,192.843 92.131 C 193.276 91.791,193.592 91.458,193.545 91.391 C 193.499 91.325,194.235 90.484,195.181 89.524 C 196.126 88.563,196.753 88.063,196.573 88.413 C 196.055 89.422,193.396 93.429,192.782 94.128 C 191.946 95.079,190.476 97.401,190.476 97.771 C 190.476 97.949,190.330 98.095,190.152 98.095 C 189.974 98.095,189.658 98.488,189.452 98.968 C 189.245 99.448,188.676 100.362,188.189 100.998 C 187.701 101.634,187.302 102.295,187.302 102.467 C 187.302 102.639,187.100 102.947,186.854 103.151 C 186.608 103.355,185.572 104.766,184.552 106.285 C 183.533 107.804,182.611 109.119,182.505 109.206 C 182.398 109.294,182.061 109.852,181.757 110.446 C 181.452 111.041,181.072 111.684,180.913 111.875 C 180.754 112.066,180.187 112.865,179.654 113.651 C 175.936 119.132,175.008 120.515,174.462 121.391 C 174.122 121.935,173.408 122.972,172.874 123.694 C 171.659 125.339,171.622 125.394,168.624 130.000 C 167.260 132.095,165.904 134.006,165.612 134.245 C 165.319 134.485,165.079 134.853,165.079 135.063 C 165.079 135.273,164.440 136.291,163.659 137.326 C 162.878 138.360,162.235 139.319,162.231 139.458 C 162.226 139.596,161.944 140.007,161.605 140.372 C 161.265 140.737,160.586 141.802,160.097 142.739 C 159.607 143.676,159.028 144.443,158.810 144.444 C 158.591 144.444,158.413 144.637,158.413 144.871 C 158.413 145.106,158.056 145.713,157.619 146.220 C 157.183 146.728,156.826 147.314,156.826 147.524 C 156.826 147.733,156.575 148.051,156.270 148.229 C 155.964 148.407,155.827 148.556,155.965 148.562 C 156.103 148.567,155.911 148.893,155.539 149.286 C 155.167 149.679,154.580 150.596,154.234 151.324 C 153.888 152.052,153.401 152.726,153.151 152.822 C 152.902 152.918,152.698 153.215,152.698 153.482 C 152.698 153.749,152.591 153.969,152.460 153.970 C 152.141 153.973,150.614 156.246,150.714 156.570 C 150.758 156.710,150.644 156.825,150.461 156.825 C 150.278 156.825,149.953 157.218,149.740 157.698 C 149.323 158.635,147.016 162.277,146.673 162.540 C 146.356 162.783,144.444 165.642,144.444 165.874 C 144.444 165.985,144.266 166.276,144.048 166.520 C 143.106 167.570,142.857 167.929,142.857 168.241 C 142.857 168.423,142.748 168.571,142.615 168.571 C 142.482 168.571,142.232 168.838,142.059 169.164 C 141.012 171.146,139.757 172.985,139.576 172.804 C 139.460 172.688,139.365 172.831,139.365 173.122 C 139.365 173.413,139.214 173.651,139.029 173.651 C 138.844 173.651,138.782 173.795,138.890 173.970 C 138.999 174.146,138.865 174.376,138.592 174.481 C 138.319 174.585,138.095 174.870,138.095 175.113 C 138.095 175.357,137.952 175.556,137.778 175.556 C 137.603 175.556,137.460 175.692,137.460 175.858 C 137.460 176.024,136.817 177.080,136.032 178.204 C 135.246 179.328,134.603 180.350,134.603 180.475 C 134.603 180.600,134.246 181.126,133.810 181.645 C 133.373 182.164,133.016 182.760,133.016 182.970 C 133.016 183.180,132.718 183.562,132.354 183.819 C 131.990 184.076,131.471 184.714,131.200 185.238 C 130.928 185.762,130.289 186.722,129.779 187.371 C 129.268 188.021,128.829 188.842,128.802 189.197 C 128.776 189.551,128.587 189.841,128.384 189.841 C 128.180 189.841,127.841 190.258,127.630 190.767 C 127.419 191.277,126.812 192.170,126.282 192.752 C 125.752 193.333,124.819 194.595,124.210 195.556 C 121.898 199.197,121.566 199.715,120.787 200.900 C 120.347 201.569,119.740 202.395,119.438 202.735 C 119.136 203.074,118.610 203.848,118.269 204.454 C 117.929 205.060,117.173 206.181,116.590 206.946 C 116.007 207.711,115.334 208.804,115.095 209.376 C 114.417 210.998,112.513 213.674,112.223 213.411 C 112.079 213.281,112.064 213.352,112.189 213.570 C 112.429 213.986,110.879 216.281,110.512 216.054 C 110.395 215.982,110.057 216.347,109.760 216.865 C 109.446 217.412,109.383 217.709,109.609 217.573 C 109.828 217.442,109.790 217.605,109.524 217.945 C 109.262 218.278,108.875 218.770,108.663 219.038 C 107.102 221.011,105.079 223.891,105.079 224.141 C 105.079 224.308,104.937 224.444,104.762 224.444 C 104.587 224.444,104.444 224.730,104.444 225.079 C 104.444 225.429,104.312 225.714,104.149 225.714 C 103.877 225.714,101.905 228.397,101.905 228.767 C 101.905 228.857,101.548 229.399,101.111 229.972 C 100.675 230.544,100.317 231.155,100.317 231.330 C 100.317 231.505,100.032 231.906,99.683 232.222 C 99.333 232.538,99.048 232.926,99.048 233.084 C 99.048 233.241,98.614 233.910,98.085 234.569 C 97.436 235.376,97.187 235.965,97.321 236.375 C 97.441 236.740,97.413 236.839,97.252 236.622 C 97.055 236.356,96.882 236.371,96.597 236.678 C 96.292 237.007,96.292 237.130,96.597 237.253 C 96.851 237.356,96.821 237.420,96.508 237.439 C 96.246 237.455,95.471 238.288,94.785 239.290 C 91.149 244.603,88.351 248.827,87.959 249.598 C 87.716 250.075,87.255 250.748,86.933 251.092 C 86.612 251.437,86.349 251.847,86.349 252.003 C 86.349 252.159,85.919 252.737,85.394 253.286 C 84.869 253.836,84.517 254.286,84.613 254.286 C 84.708 254.286,84.495 254.598,84.139 254.980 C 83.783 255.363,83.492 255.836,83.492 256.032 C 83.492 256.228,83.242 256.672,82.937 257.020 C 82.631 257.367,82.180 258.001,81.934 258.429 C 81.688 258.856,80.902 259.976,80.188 260.918 C 78.852 262.678,77.611 264.558,77.232 265.397 C 77.113 265.659,76.762 266.146,76.452 266.480 C 76.142 266.814,75.619 267.632,75.290 268.297 C 74.961 268.962,74.600 269.415,74.489 269.303 C 74.377 269.192,74.286 269.462,74.286 269.905 C 74.286 270.695,76.580 271.868,78.852 272.238 C 79.222 272.299,79.952 272.431,80.476 272.532 C 82.133 272.853,94.402 272.916,95.397 272.608 C 95.921 272.447,96.992 272.271,97.778 272.219 C 98.563 272.167,99.563 272.042,100.000 271.941 C 100.437 271.839,101.222 271.655,101.746 271.531 C 102.270 271.407,102.770 271.296,102.857 271.284 C 102.944 271.272,103.444 271.104,103.968 270.909 C 105.056 270.506,108.533 269.445,109.126 269.336 C 109.343 269.296,110.557 268.862,111.824 268.372 C 113.091 267.881,114.198 267.469,114.286 267.455 C 114.899 267.356,116.063 266.850,116.214 266.616 C 116.314 266.461,116.742 266.268,117.165 266.186 C 117.588 266.105,117.983 265.893,118.042 265.715 C 118.101 265.538,118.269 265.467,118.414 265.556 C 118.560 265.646,118.905 265.494,119.181 265.218 C 119.457 264.942,119.683 264.799,119.683 264.901 C 119.683 265.077,120.268 264.776,125.238 262.036 C 126.460 261.363,127.567 260.843,127.698 260.882 C 127.829 260.921,127.937 260.810,127.937 260.635 C 127.937 260.460,128.151 260.317,128.413 260.317 C 128.675 260.317,128.889 260.108,128.889 259.851 C 128.889 259.567,129.075 259.456,129.365 259.568 C 129.627 259.668,129.841 259.584,129.841 259.380 C 129.841 259.177,129.984 259.098,130.159 259.206 C 130.333 259.314,130.476 259.243,130.476 259.048 C 130.476 258.852,130.603 258.771,130.758 258.867 C 130.912 258.962,131.203 258.844,131.403 258.603 C 131.603 258.362,133.619 256.921,135.883 255.402 C 138.147 253.883,140.000 252.502,140.000 252.333 C 140.000 252.164,140.143 252.114,140.317 252.222 C 140.492 252.330,140.635 252.279,140.635 252.108 C 140.635 251.937,141.135 251.489,141.746 251.111 C 142.357 250.733,142.857 250.222,142.857 249.974 C 142.857 249.726,143.015 249.524,143.209 249.524 C 143.662 249.524,147.342 246.638,149.265 244.774 C 150.771 243.315,153.604 240.768,154.764 239.830 C 155.112 239.548,155.183 239.420,154.921 239.545 C 154.659 239.670,155.909 238.352,157.698 236.616 C 159.488 234.880,160.952 233.227,160.952 232.943 C 160.952 232.660,161.142 232.381,161.375 232.325 C 161.758 232.232,163.400 230.449,165.653 227.679 C 166.123 227.101,166.758 226.351,167.063 226.012 C 167.369 225.674,167.516 225.397,167.390 225.397 C 167.264 225.397,167.456 225.190,167.817 224.937 C 168.357 224.559,171.277 220.698,172.540 218.694 C 172.896 218.128,174.732 215.651,175.337 214.921 C 175.554 214.659,175.751 214.318,175.775 214.162 C 175.799 214.007,175.949 213.793,176.109 213.686 C 176.343 213.529,178.672 209.910,180.727 206.508 C 180.938 206.159,181.183 205.802,181.270 205.714 C 181.357 205.627,181.682 205.056,181.991 204.444 C 182.300 203.833,182.894 202.762,183.311 202.063 C 183.727 201.365,184.740 199.437,185.560 197.778 C 186.381 196.119,187.159 194.690,187.289 194.603 C 187.599 194.395,190.159 188.979,190.159 188.531 C 190.159 188.220,191.676 184.744,192.375 183.452 C 192.529 183.168,192.755 182.382,192.877 181.706 C 193.146 180.218,193.592 179.291,193.937 179.505 C 194.077 179.591,194.362 179.059,194.571 178.323 C 194.779 177.587,195.080 176.698,195.240 176.349 C 195.756 175.219,198.301 168.170,199.179 165.440 C 199.649 163.980,200.252 162.450,200.520 162.041 C 200.788 161.632,200.922 161.161,200.819 160.993 C 200.716 160.826,200.800 160.633,201.006 160.564 C 201.237 160.487,201.366 159.805,201.343 158.783 C 201.318 157.699,201.421 157.199,201.639 157.334 C 201.857 157.468,201.894 157.293,201.746 156.825 C 201.605 156.380,201.638 156.184,201.835 156.306 C 202.008 156.413,202.327 156.288,202.543 156.028 C 202.758 155.768,202.810 155.553,202.658 155.551 C 202.506 155.548,202.535 155.441,202.723 155.313 C 202.911 155.184,204.029 152.151,205.206 148.571 C 206.384 144.992,207.539 141.635,207.773 141.111 C 208.265 140.011,208.995 137.837,209.106 137.143 C 209.148 136.881,209.671 135.242,210.268 133.500 C 210.865 131.758,211.283 130.149,211.197 129.924 C 211.111 129.700,211.203 129.319,211.403 129.078 C 211.603 128.838,211.797 128.197,211.835 127.654 C 211.874 127.112,211.976 126.668,212.063 126.667 C 212.151 126.667,212.244 126.291,212.271 125.831 C 212.297 125.372,212.456 124.908,212.623 124.800 C 212.913 124.613,213.979 122.722,213.983 122.388 C 213.987 122.110,214.323 121.129,214.586 120.625 C 214.726 120.357,214.957 119.643,215.100 119.037 C 215.411 117.724,215.405 117.745,215.626 117.143 C 215.794 116.686,218.260 108.861,219.278 105.556 C 219.547 104.683,219.903 103.796,220.069 103.585 C 220.236 103.375,220.282 103.057,220.173 102.880 C 220.063 102.703,220.194 102.221,220.464 101.809 C 220.734 101.397,220.859 100.965,220.742 100.848 C 220.625 100.731,220.683 100.635,220.872 100.635 C 221.060 100.635,221.314 100.028,221.437 99.286 C 221.559 98.544,221.811 97.749,221.996 97.520 C 222.182 97.290,222.313 96.290,222.287 95.297 C 222.260 94.229,222.349 93.665,222.505 93.915 C 222.818 94.418,224.147 91.262,224.756 88.571 C 224.973 87.611,225.357 86.433,225.609 85.952 C 225.861 85.472,225.995 85.079,225.906 85.079 C 225.816 85.079,226.093 84.329,226.519 83.413 C 226.946 82.496,227.297 81.425,227.298 81.032 C 227.300 80.639,227.444 80.317,227.619 80.317 C 227.794 80.317,227.914 80.210,227.886 80.079 C 227.839 79.855,227.945 79.509,228.474 78.175 C 228.595 77.869,228.715 77.476,228.742 77.302 C 228.768 77.127,228.955 76.582,229.157 76.090 C 229.359 75.599,229.526 75.099,229.528 74.979 C 229.530 74.860,230.101 73.198,230.798 71.287 C 231.494 69.375,232.063 67.482,232.063 67.080 C 232.063 66.678,232.222 66.349,232.415 66.349 C 232.632 66.349,232.691 66.045,232.568 65.556 C 232.458 65.119,232.499 64.762,232.657 64.762 C 232.816 64.762,232.939 64.583,232.931 64.365 C 232.893 63.345,233.043 62.836,233.330 63.014 C 233.510 63.125,233.563 62.997,233.454 62.715 C 233.338 62.412,233.439 62.222,233.716 62.222 C 234.139 62.222,235.117 60.307,234.945 59.818 C 234.902 59.695,235.000 59.507,235.164 59.401 C 235.328 59.294,235.751 58.421,236.104 57.460 C 237.943 52.463,240.793 45.218,240.974 45.079 C 241.343 44.796,242.246 42.857,242.008 42.857 C 241.881 42.857,241.949 42.686,242.159 42.476 C 242.368 42.267,242.540 41.912,242.540 41.689 C 242.540 41.465,243.089 40.101,243.761 38.657 C 244.433 37.213,245.243 35.317,245.562 34.444 C 245.880 33.571,246.275 32.680,246.439 32.464 C 246.603 32.248,246.655 31.855,246.553 31.591 C 246.445 31.308,246.546 31.111,246.801 31.111 C 247.038 31.111,247.322 30.754,247.432 30.317 C 247.542 29.881,247.771 29.524,247.943 29.524 C 248.114 29.524,248.254 29.167,248.254 28.730 C 248.254 28.294,248.397 27.937,248.571 27.937 C 248.746 27.937,248.856 27.829,248.816 27.698 C 248.776 27.567,249.222 26.460,249.806 25.238 C 252.425 19.758,255.644 13.133,255.898 12.698 C 256.920 10.949,257.648 9.164,257.402 9.012 C 257.242 8.913,257.476 8.495,257.921 8.082 C 258.366 7.669,258.730 7.159,258.730 6.948 C 258.730 6.517,260.284 3.743,260.670 3.484 C 260.807 3.392,260.786 3.106,260.623 2.849 C 260.214 2.202,260.244 1.822,260.684 2.094 C 260.901 2.228,260.965 2.182,260.841 1.981 C 260.725 1.794,260.810 1.569,261.030 1.481 C 261.301 1.372,261.273 1.312,260.944 1.295 C 260.677 1.281,259.963 1.724,259.356 2.278 M101.043 29.683 C 101.046 30.556,101.107 30.875,101.180 30.392 C 101.253 29.910,101.251 29.196,101.176 28.805 C 101.100 28.415,101.041 28.810,101.043 29.683 M124.892 163.175 C 124.892 166.230,124.940 167.480,124.998 165.952 C 125.056 164.425,125.056 161.925,124.998 160.397 C 124.940 158.869,124.892 160.119,124.892 163.175 M72.293 237.808 C 70.154 239.053,61.846 239.529,51.825 238.980 C 50.522 238.909,50.154 238.993,50.136 239.365 C 50.122 239.683,50.023 239.630,49.841 239.206 C 49.593 238.629,49.569 238.643,49.577 239.365 C 49.592 240.908,50.339 243.336,50.769 243.242 C 51.085 243.172,51.146 243.519,51.021 244.681 C 50.919 245.630,51.012 246.503,51.267 246.979 C 51.493 247.401,51.607 247.930,51.520 248.156 C 51.434 248.382,51.591 248.654,51.870 248.761 C 52.149 248.868,52.298 249.083,52.202 249.240 C 52.105 249.396,52.273 249.524,52.574 249.524 C 52.875 249.524,53.033 249.612,52.925 249.720 C 52.817 249.828,52.944 250.133,53.208 250.396 C 53.472 250.660,53.605 251.091,53.503 251.355 C 53.269 251.964,54.342 254.233,55.990 256.613 L 57.271 258.465 57.910 257.566 C 58.262 257.071,59.019 256.188,59.592 255.603 C 60.166 255.018,60.635 254.423,60.635 254.280 C 60.635 254.138,60.742 253.974,60.873 253.915 C 61.564 253.608,62.811 251.673,62.635 251.182 C 62.527 250.881,62.550 250.735,62.686 250.858 C 62.822 250.981,63.130 250.884,63.371 250.642 C 63.918 250.096,63.943 249.727,63.413 250.032 C 63.194 250.158,63.127 250.138,63.263 249.989 C 63.399 249.839,63.746 249.683,64.033 249.640 C 64.320 249.598,64.689 249.326,64.852 249.035 C 65.015 248.744,65.609 248.056,66.173 247.507 C 66.737 246.957,67.609 245.937,68.111 245.238 C 68.613 244.540,69.273 243.719,69.577 243.414 C 73.102 239.880,74.818 236.338,72.293 237.808 " stroke="none" fill="#8cbc44" fill-rule="evenodd"></path><path id="path1" d="M99.821 9.633 C 99.491 10.184,98.546 11.921,97.720 13.492 C 96.894 15.063,95.765 17.206,95.211 18.254 C 94.657 19.302,93.571 21.159,92.797 22.381 C 90.365 26.223,88.254 29.927,88.254 30.352 C 88.254 30.578,88.060 30.876,87.823 31.016 C 87.404 31.262,82.245 38.867,82.199 39.306 C 82.187 39.426,81.477 40.452,80.622 41.587 C 79.767 42.722,78.211 44.865,77.165 46.349 C 74.939 49.506,67.722 58.816,66.530 60.070 C 66.078 60.545,65.745 61.094,65.790 61.290 C 65.836 61.486,65.599 61.812,65.264 62.014 C 64.481 62.486,62.980 64.139,61.650 65.997 C 61.074 66.802,60.217 67.825,59.745 68.272 C 59.274 68.718,58.603 69.434,58.254 69.864 C 57.905 70.293,56.984 71.428,56.207 72.386 C 55.430 73.343,54.001 74.991,53.032 76.046 C 52.063 77.101,50.575 78.816,49.726 79.856 C 48.877 80.895,47.520 82.478,46.710 83.374 C 43.923 86.455,39.206 92.112,39.206 92.372 C 39.206 92.515,38.560 93.255,37.771 94.015 C 36.515 95.224,32.343 100.175,32.395 100.395 C 32.406 100.440,31.748 101.190,30.933 102.063 C 30.118 102.937,29.012 104.294,28.476 105.079 C 27.940 105.865,26.753 107.342,25.838 108.361 C 24.924 109.380,23.774 110.808,23.282 111.535 C 22.791 112.262,21.602 113.834,20.639 115.027 C 17.519 118.896,14.286 123.427,14.286 123.932 C 14.286 124.130,13.907 124.701,13.444 125.200 C 9.691 129.247,2.357 147.087,1.692 153.788 C 1.586 154.847,1.390 155.857,1.254 156.032 C -0.452 158.235,-0.207 183.791,1.551 186.987 C 1.696 187.250,2.056 188.608,2.351 190.003 C 4.380 199.598,10.199 210.709,16.784 217.562 C 22.005 222.996,21.882 222.949,22.863 219.841 C 23.084 219.143,23.364 218.500,23.486 218.413 C 23.608 218.325,24.364 216.611,25.165 214.603 C 25.967 212.595,27.433 209.024,28.422 206.667 C 29.411 204.310,30.771 200.914,31.445 199.121 C 32.118 197.328,32.884 195.471,33.147 194.994 C 33.715 193.961,35.144 190.501,37.765 183.810 C 38.826 181.103,39.889 178.532,40.129 178.095 C 40.575 177.283,45.397 165.220,45.397 164.916 C 45.397 164.824,45.825 163.859,46.348 162.771 C 46.870 161.684,48.708 157.294,50.432 153.016 C 52.156 148.738,54.023 144.167,54.582 142.857 C 55.141 141.548,56.457 138.262,57.506 135.556 C 58.556 132.849,59.707 130.063,60.064 129.365 C 60.422 128.667,61.924 125.024,63.402 121.270 C 64.881 117.516,66.346 113.873,66.659 113.175 C 68.208 109.713,69.314 107.029,71.078 102.455 C 72.140 99.701,73.206 97.130,73.447 96.740 C 73.689 96.351,75.076 93.001,76.531 89.297 C 77.985 85.592,79.215 82.601,79.264 82.650 C 79.350 82.737,73.748 105.087,73.403 106.032 C 73.308 106.294,73.205 106.579,73.175 106.667 C 73.144 106.754,73.027 107.040,72.915 107.302 C 72.802 107.563,71.368 112.992,69.728 119.365 C 68.088 125.738,66.379 132.238,65.929 133.810 C 65.478 135.381,63.955 141.167,62.542 146.667 C 59.790 157.383,59.874 157.065,59.585 157.778 C 59.353 158.347,58.138 163.023,55.708 172.698 C 54.721 176.627,53.573 180.913,53.157 182.222 C 52.741 183.532,51.105 189.675,49.521 195.873 C 47.937 202.071,46.586 207.357,46.519 207.619 C 46.452 207.881,46.110 209.024,45.760 210.159 C 44.449 214.398,40.687 229.741,40.584 231.267 L 40.476 232.851 42.063 233.250 C 47.321 234.571,58.349 235.107,62.698 234.254 C 63.571 234.083,65.000 233.822,65.873 233.674 C 69.364 233.083,73.019 231.802,79.206 229.000 C 83.983 226.837,93.968 219.961,93.968 218.836 C 93.968 218.594,94.290 218.274,94.683 218.124 C 96.152 217.562,103.701 209.164,105.718 205.847 C 106.134 205.163,106.570 204.532,106.687 204.444 C 107.759 203.644,114.334 190.729,115.091 187.937 C 115.115 187.849,115.225 187.563,115.336 187.302 C 118.757 179.247,120.558 161.766,119.356 148.273 C 118.503 138.697,116.047 122.826,115.203 121.429 C 115.097 121.254,115.050 120.612,115.098 120.002 C 115.146 119.391,114.763 116.820,114.246 114.287 C 113.729 111.755,112.604 106.149,111.746 101.831 C 110.889 97.512,110.038 93.700,109.855 93.360 C 109.673 93.019,109.517 92.195,109.509 91.529 C 109.501 90.863,108.854 87.246,108.072 83.492 C 107.290 79.738,106.139 73.595,105.514 69.841 C 104.889 66.087,104.250 62.768,104.093 62.465 C 103.937 62.161,103.810 61.298,103.810 60.547 C 103.810 59.795,103.598 57.543,103.339 55.542 C 102.758 51.047,101.998 42.854,101.750 38.413 C 101.648 36.579,101.474 34.222,101.365 33.175 C 101.255 32.127,101.157 26.237,101.146 20.086 C 101.124 8.379,101.027 7.613,99.821 9.633 M199.044 177.046 C 198.817 177.885,198.438 178.960,198.201 179.436 C 197.848 180.145,197.846 180.271,198.191 180.139 C 198.754 179.923,200.094 176.158,199.736 175.799 C 199.576 175.640,199.281 176.171,199.044 177.046 M185.526 206.748 C 183.609 209.716,182.792 211.151,182.936 211.295 C 183.024 211.384,183.376 210.985,183.718 210.410 C 184.060 209.835,184.868 208.544,185.513 207.540 C 186.158 206.536,186.575 205.715,186.438 205.716 C 186.302 205.718,185.891 206.182,185.526 206.748 M181.391 213.730 C 180.298 215.584,180.227 215.742,180.783 215.079 C 181.428 214.311,181.984 213.333,181.776 213.333 C 181.693 213.333,181.520 213.512,181.391 213.730 M179.377 216.568 C 179.021 216.950,178.730 217.438,178.730 217.652 C 178.730 217.867,178.552 218.114,178.333 218.202 C 178.052 218.316,178.046 218.370,178.312 218.388 C 178.640 218.410,179.403 217.518,180.125 216.270 C 180.486 215.646,180.088 215.805,179.377 216.568 M156.984 243.869 C 156.635 244.034,156.068 244.552,155.724 245.020 L 155.100 245.873 156.110 245.030 C 156.665 244.567,157.303 244.122,157.528 244.042 C 157.753 243.962,157.865 243.823,157.778 243.734 C 157.690 243.644,157.333 243.705,156.984 243.869 M152.540 247.701 C 151.250 248.646,150.689 249.206,151.036 249.206 C 151.330 249.206,153.938 247.013,153.651 247.007 C 153.563 247.006,153.063 247.318,152.540 247.701 M141.290 256.832 C 140.690 257.345,140.264 257.830,140.345 257.911 C 140.425 257.991,141.059 257.571,141.753 256.977 C 142.448 256.383,142.873 255.897,142.698 255.898 C 142.524 255.898,141.890 256.319,141.290 256.832 M138.810 258.727 C 137.746 259.375,137.344 259.943,138.333 259.400 C 139.071 258.994,140.200 258.118,140.000 258.107 C 139.913 258.102,139.377 258.381,138.810 258.727 M124.286 267.315 C 123.413 267.829,122.841 268.243,123.016 268.236 C 123.557 268.215,126.854 266.379,126.349 266.380 C 126.087 266.381,125.159 266.801,124.286 267.315 M120.773 269.004 C 119.889 269.377,118.639 269.888,117.996 270.139 C 117.025 270.517,116.403 271.111,116.978 271.111 C 117.322 271.111,122.540 268.599,122.540 268.433 C 122.540 268.335,122.504 268.270,122.460 268.289 C 122.417 268.309,121.658 268.630,120.773 269.004 M125.628 317.372 C 126.191 317.442,127.191 317.443,127.850 317.375 C 128.509 317.306,128.048 317.248,126.825 317.247 C 125.603 317.246,125.064 317.302,125.628 317.372 " stroke="none" fill="#649334" fill-rule="evenodd"></path><path id="path2" d="M393.991 122.725 C 391.646 123.490,389.646 124.244,389.546 124.401 C 389.447 124.558,388.948 124.686,388.437 124.685 C 387.918 124.683,387.331 124.927,387.104 125.238 C 386.855 125.578,386.491 125.715,386.165 125.590 C 385.873 125.478,385.473 125.511,385.277 125.665 C 384.887 125.970,380.655 127.264,371.111 129.996 C 367.706 130.970,364.421 131.975,363.810 132.229 C 363.198 132.483,360.984 133.124,358.889 133.653 C 356.794 134.183,354.831 134.756,354.528 134.927 C 354.225 135.098,353.698 135.238,353.356 135.238 C 352.564 135.238,339.684 138.354,339.041 138.702 C 338.419 139.038,328.708 141.192,324.524 141.922 C 323.258 142.143,322.222 142.444,322.222 142.591 C 322.222 142.737,321.719 142.857,321.103 142.857 C 319.747 142.857,308.036 144.996,307.143 145.407 C 306.794 145.568,302.937 146.282,298.571 146.994 C 294.206 147.705,290.421 148.374,290.159 148.480 C 289.897 148.586,289.556 148.643,289.402 148.608 C 288.920 148.497,268.448 151.758,267.778 152.052 C 267.180 152.314,263.400 152.949,254.352 154.308 C 248.734 155.151,246.837 155.528,246.738 155.820 C 246.690 155.962,246.248 156.019,245.755 155.947 C 244.937 155.827,232.774 157.749,230.159 158.412 C 229.548 158.567,228.476 158.843,227.778 159.024 C 227.079 159.206,225.222 159.566,223.651 159.825 C 220.125 160.406,204.026 163.475,203.969 163.577 C 203.945 163.617,203.462 165.151,202.893 166.984 C 200.696 174.073,200.189 175.514,199.944 175.362 C 199.804 175.276,199.766 175.404,199.859 175.647 C 200.066 176.186,198.785 179.718,198.223 180.159 C 197.605 180.643,196.098 184.690,196.278 185.380 C 196.366 185.714,196.195 186.248,195.899 186.565 C 195.312 187.195,193.016 191.783,193.409 191.540 C 193.542 191.458,193.651 191.535,193.651 191.712 C 193.651 191.888,193.454 192.146,193.213 192.286 C 192.691 192.589,190.115 197.629,190.359 197.872 C 190.566 198.079,186.978 205.210,185.454 207.619 C 184.847 208.579,183.215 211.216,181.829 213.478 C 180.442 215.740,178.749 218.133,178.066 218.795 C 177.002 219.828,176.338 221.222,177.064 220.899 C 177.195 220.841,178.624 220.310,180.238 219.718 C 181.853 219.127,183.175 218.484,183.175 218.290 C 183.176 217.976,190.151 215.238,190.952 215.237 C 191.408 215.236,198.334 212.578,199.841 211.825 C 201.164 211.165,203.270 210.333,210.476 207.629 C 212.833 206.744,215.492 205.665,216.385 205.230 C 217.278 204.796,218.778 204.168,219.719 203.837 C 223.210 202.604,231.626 199.318,233.217 198.565 C 234.123 198.137,236.912 197.013,239.416 196.067 C 247.716 192.932,249.965 192.039,250.336 191.731 C 250.538 191.563,251.831 191.015,253.209 190.513 C 254.587 190.011,256.714 189.212,257.937 188.738 C 259.159 188.263,261.302 187.436,262.698 186.899 C 264.095 186.363,266.095 185.538,267.143 185.067 C 268.190 184.596,270.405 183.701,272.063 183.079 C 277.329 181.104,282.349 179.116,283.333 178.616 C 284.551 177.997,291.857 175.243,291.973 175.359 C 292.054 175.440,286.134 178.473,266.349 188.487 C 262.071 190.652,257.357 193.017,255.873 193.743 C 254.389 194.469,251.746 195.819,250.000 196.744 C 248.254 197.668,243.968 199.848,240.476 201.587 C 236.984 203.326,233.913 204.895,233.651 205.073 C 233.389 205.250,230.889 206.527,228.095 207.909 C 218.366 212.723,208.447 217.727,207.955 218.070 C 207.683 218.260,204.994 219.624,201.980 221.102 C 198.966 222.579,195.823 224.184,194.996 224.669 C 194.169 225.153,190.886 226.795,187.701 228.316 C 184.516 229.837,181.730 231.235,181.510 231.424 C 181.291 231.612,178.361 233.113,174.999 234.760 C 171.637 236.407,168.708 237.903,168.491 238.083 C 167.729 238.715,158.762 243.101,158.588 242.927 C 158.492 242.830,158.413 242.926,158.413 243.140 C 158.413 243.354,158.270 243.441,158.095 243.333 C 157.921 243.225,157.778 243.337,157.778 243.581 C 157.778 243.825,157.456 244.177,157.063 244.363 C 156.671 244.548,155.223 245.714,153.846 246.953 C 152.470 248.192,151.179 249.206,150.979 249.206 C 150.779 249.206,149.865 249.922,148.949 250.796 C 148.032 251.670,146.710 252.746,146.011 253.188 C 145.312 253.629,143.995 254.740,143.084 255.657 C 141.358 257.395,138.988 259.159,137.722 259.648 C 136.476 260.130,130.057 264.047,129.048 264.941 C 127.169 266.608,114.682 272.397,113.139 272.317 C 112.809 272.300,111.040 272.729,109.206 273.270 C 105.367 274.403,100.081 275.402,96.190 275.730 C 93.704 275.939,90.696 276.965,90.159 277.786 C 90.071 277.919,87.357 279.295,84.127 280.843 C 76.382 284.554,77.027 284.096,77.093 285.837 C 77.145 287.219,79.285 292.864,79.925 293.306 C 80.072 293.409,80.899 294.635,81.762 296.032 C 84.576 300.587,93.604 308.738,96.190 309.058 C 96.278 309.069,96.849 309.399,97.460 309.791 C 108.819 317.080,134.729 319.671,156.508 315.695 C 158.865 315.264,161.508 314.784,162.381 314.628 C 166.357 313.916,170.915 312.654,171.272 312.166 C 171.510 311.839,171.863 311.723,172.210 311.856 C 172.807 312.085,174.800 311.643,176.349 310.938 C 176.873 310.700,179.695 309.706,182.620 308.731 C 188.482 306.775,193.333 304.836,193.333 304.448 C 193.333 304.310,193.512 304.210,193.730 304.225 C 194.148 304.253,194.779 303.974,201.435 300.810 C 207.166 298.086,217.218 292.426,218.889 290.983 C 219.413 290.530,219.966 290.159,220.117 290.159 C 220.911 290.158,232.260 282.035,232.794 281.087 C 232.933 280.838,233.276 280.635,233.555 280.635 C 234.084 280.635,236.192 279.032,238.095 277.183 C 238.706 276.590,239.633 275.840,240.154 275.518 C 242.065 274.337,257.778 259.457,257.778 258.829 C 257.778 258.600,257.885 258.444,258.016 258.483 C 258.394 258.595,264.743 252.364,265.768 250.874 C 266.279 250.131,266.881 249.524,267.106 249.524 C 267.331 249.524,268.494 248.488,269.691 247.222 C 272.031 244.748,282.834 233.486,287.381 228.781 C 288.909 227.200,290.159 225.721,290.159 225.493 C 290.159 225.266,290.266 225.109,290.397 225.146 C 290.748 225.244,295.667 219.987,296.178 218.968 C 296.418 218.488,296.770 218.085,296.958 218.073 C 297.359 218.047,299.801 215.492,313.016 201.271 C 314.849 199.298,317.582 196.383,319.089 194.794 C 323.299 190.355,324.957 188.480,325.369 187.690 C 325.576 187.292,325.877 187.047,326.037 187.146 C 326.197 187.245,327.511 186.078,328.958 184.553 C 333.710 179.541,340.055 173.238,346.660 166.966 C 350.236 163.571,354.281 159.687,355.649 158.333 C 357.017 156.980,358.210 155.873,358.300 155.873 C 358.627 155.873,361.473 153.460,363.492 151.471 C 364.627 150.353,366.056 149.116,366.667 148.722 C 367.278 148.328,368.921 146.920,370.317 145.594 C 371.714 144.268,372.951 143.181,373.066 143.179 C 373.315 143.174,377.602 139.620,378.361 138.789 C 378.651 138.471,379.960 137.410,381.270 136.429 C 384.263 134.189,387.119 131.751,386.772 131.732 C 386.627 131.724,386.874 131.545,387.321 131.335 C 388.472 130.794,394.941 125.712,395.141 125.193 C 395.232 124.956,395.440 124.762,395.603 124.762 C 396.150 124.762,399.365 122.152,399.365 121.708 C 399.365 121.064,398.698 121.190,393.991 122.725 M86.587 273.250 C 87.504 273.314,89.004 273.314,89.921 273.250 C 90.837 273.186,90.087 273.133,88.254 273.133 C 86.421 273.133,85.671 273.186,86.587 273.250 " stroke="none" fill="#3c6423" fill-rule="evenodd"></path><path id="path3" d="M261.360 0.413 C 261.447 0.640,261.325 1.176,261.088 1.603 C 260.587 2.508,260.533 2.857,260.894 2.857 C 261.166 2.857,262.222 0.830,262.222 0.307 C 262.222 0.138,261.993 0.000,261.712 0.000 C 261.424 0.000,261.271 0.180,261.360 0.413 M227.796 30.661 C 227.281 31.037,227.265 31.111,227.698 31.111 C 227.983 31.111,228.311 30.959,228.426 30.773 C 228.762 30.228,228.461 30.175,227.796 30.661 M186.940 61.923 C 186.230 62.541,186.227 62.558,186.887 62.238 C 187.270 62.053,187.672 61.759,187.779 61.586 C 188.091 61.081,187.749 61.218,186.940 61.923 M233.200 63.825 C 232.883 64.707,232.712 65.516,232.820 65.624 C 232.928 65.732,233.016 65.582,233.016 65.291 C 233.016 65.000,233.171 64.762,233.360 64.762 C 233.549 64.762,233.645 64.585,233.572 64.368 C 233.500 64.151,233.631 63.784,233.863 63.552 C 234.327 63.088,234.436 62.222,234.031 62.222 C 233.891 62.222,233.517 62.943,233.200 63.825 M117.180 111.667 C 117.201 112.147,117.312 112.968,117.427 113.492 C 117.733 114.885,118.092 113.759,117.870 112.103 C 117.674 110.646,117.121 110.297,117.180 111.667 M119.627 125.595 C 119.696 126.187,119.880 126.751,120.035 126.847 C 120.190 126.943,120.317 127.466,120.317 128.008 C 120.317 128.551,120.404 128.908,120.510 128.803 C 120.838 128.474,120.282 124.816,119.881 124.662 C 119.618 124.562,119.540 124.849,119.627 125.595 M212.233 126.519 C 211.944 127.511,211.768 128.381,211.840 128.454 C 211.912 128.526,212.203 127.769,212.487 126.772 C 212.770 125.776,212.947 124.905,212.880 124.837 C 212.812 124.770,212.521 125.526,212.233 126.519 M119.439 148.571 C 119.439 149.183,119.504 149.433,119.584 149.127 C 119.664 148.821,119.664 148.321,119.584 148.016 C 119.504 147.710,119.439 147.960,119.439 148.571 M119.715 158.095 C 119.700 163.107,119.795 165.399,120.006 165.079 C 120.386 164.501,120.384 152.789,120.003 151.522 C 119.841 150.981,119.728 153.547,119.715 158.095 M124.323 164.683 C 124.214 169.528,124.038 174.188,123.932 175.038 C 123.788 176.198,123.838 176.551,124.136 176.452 C 124.729 176.254,125.308 155.873,124.721 155.873 C 124.612 155.873,124.432 159.837,124.323 164.683 M202.310 156.270 C 201.819 156.905,201.594 157.744,201.869 157.914 C 202.009 158.001,202.275 157.577,202.460 156.972 C 202.823 155.791,202.792 155.647,202.310 156.270 M119.445 167.778 C 119.449 168.476,119.514 168.725,119.590 168.330 C 119.666 167.935,119.663 167.363,119.583 167.060 C 119.504 166.756,119.442 167.079,119.445 167.778 M53.582 234.838 C 54.505 234.902,55.933 234.901,56.757 234.836 C 57.580 234.771,56.825 234.718,55.079 234.719 C 53.333 234.720,52.660 234.773,53.582 234.838 M49.206 239.039 C 49.206 240.362,50.268 244.463,50.510 244.072 C 50.646 243.852,50.639 243.524,50.495 243.344 C 50.228 243.010,49.524 240.013,49.524 239.212 C 49.524 238.970,49.917 238.713,50.397 238.640 C 51.209 238.517,51.198 238.505,50.238 238.460 C 49.407 238.422,49.206 238.534,49.206 239.039 M52.068 249.762 C 52.077 250.196,52.661 250.937,52.847 250.751 C 53.097 250.500,52.699 249.524,52.347 249.524 C 52.191 249.524,52.066 249.631,52.068 249.762 M63.721 250.162 C 63.116 250.870,63.003 251.254,63.490 250.953 C 63.802 250.761,64.561 249.524,64.367 249.524 C 64.313 249.524,64.022 249.811,63.721 250.162 " stroke="none" fill="#a2cc68" fill-rule="evenodd"></path><path id="path4" d="M226.646 31.612 C 226.428 31.875,226.566 31.934,227.145 31.823 C 227.585 31.739,228.005 31.575,228.077 31.459 C 228.306 31.088,226.962 31.232,226.646 31.612 M240.261 46.546 C 239.971 47.352,239.852 47.888,239.996 47.736 C 240.412 47.299,241.261 45.079,241.013 45.079 C 240.890 45.079,240.551 45.739,240.261 46.546 M233.051 63.210 C 232.856 63.771,232.751 64.285,232.819 64.353 C 232.887 64.421,233.102 64.018,233.298 63.457 C 233.494 62.896,233.598 62.381,233.530 62.313 C 233.462 62.245,233.247 62.649,233.051 63.210 M222.227 94.524 C 222.224 95.091,222.365 95.556,222.540 95.556 C 222.943 95.556,222.943 94.592,222.540 93.968 C 222.306 93.607,222.231 93.741,222.227 94.524 M117.903 113.165 C 117.885 114.644,117.994 115.777,118.146 115.683 C 118.436 115.503,118.398 110.476,118.106 110.476 C 118.013 110.477,117.922 111.687,117.903 113.165 M179.321 113.889 C 178.407 114.991,178.020 115.556,178.177 115.556 C 178.265 115.556,178.719 115.056,179.185 114.444 C 180.050 113.310,180.155 112.882,179.321 113.889 M120.733 128.730 C 120.735 129.778,120.794 130.168,120.865 129.597 C 120.936 129.027,120.934 128.170,120.862 127.693 C 120.789 127.216,120.732 127.683,120.733 128.730 M159.157 143.653 C 158.955 144.088,158.896 144.444,159.027 144.444 C 159.157 144.444,159.426 144.087,159.625 143.651 C 159.824 143.214,159.882 142.858,159.755 142.860 C 159.628 142.861,159.359 143.218,159.157 143.653 M125.217 163.810 C 125.217 168.262,125.262 170.083,125.317 167.857 C 125.371 165.631,125.371 161.988,125.317 159.762 C 125.262 157.536,125.217 159.357,125.217 163.810 M201.292 157.838 C 201.280 158.308,201.413 158.781,201.587 158.889 C 201.966 159.123,201.966 158.501,201.587 157.619 C 201.344 157.052,201.312 157.076,201.292 157.838 M124.842 173.175 C 124.845 173.873,124.910 174.121,124.986 173.726 C 125.062 173.332,125.059 172.760,124.980 172.457 C 124.901 172.153,124.838 172.476,124.842 173.175 M112.698 212.653 C 112.698 212.802,112.184 213.598,111.556 214.421 C 110.928 215.243,110.479 215.982,110.559 216.062 C 110.640 216.142,111.052 215.740,111.475 215.167 C 112.817 213.356,113.358 212.381,113.023 212.381 C 112.845 212.381,112.698 212.503,112.698 212.653 M98.259 233.879 L 97.701 234.762 98.436 234.056 C 98.840 233.668,99.091 233.271,98.994 233.174 C 98.896 233.076,98.565 233.393,98.259 233.879 M155.377 238.750 C 154.831 239.321,154.667 239.638,154.981 239.517 C 155.437 239.343,156.727 237.778,156.416 237.778 C 156.357 237.778,155.890 238.215,155.377 238.750 M51.035 238.955 C 51.430 239.031,52.002 239.028,52.305 238.948 C 52.609 238.869,52.286 238.807,51.587 238.810 C 50.889 238.814,50.641 238.879,51.035 238.955 M50.676 243.889 C 50.406 244.896,50.431 245.714,50.732 245.714 C 50.872 245.714,51.021 245.143,51.062 244.444 C 51.145 243.039,50.971 242.789,50.676 243.889 M74.603 271.092 C 74.603 271.352,77.187 272.125,77.388 271.924 C 77.447 271.866,76.844 271.596,76.049 271.325 C 75.254 271.054,74.603 270.949,74.603 271.092 M96.190 272.381 C 95.767 272.654,95.767 272.689,96.190 272.689 C 96.452 272.689,96.881 272.550,97.143 272.381 C 97.566 272.107,97.566 272.073,97.143 272.073 C 96.881 272.073,96.452 272.212,96.190 272.381 M87.073 272.932 C 87.908 272.998,89.193 272.997,89.930 272.930 C 90.667 272.864,89.984 272.810,88.413 272.811 C 86.841 272.812,86.238 272.867,87.073 272.932 " stroke="none" fill="#86bc3c" fill-rule="evenodd"></path></g></svg>