<svg height="512" viewBox="0 0 58 58" width="512" xmlns="http://www.w3.org/2000/svg"><g id="Page-1" fill="none" fill-rule="evenodd"><g id="004---Cut-Log"><ellipse id="Oval" cx="29" cy="8" fill="#fdd7ad" rx="18" ry="8"/><ellipse id="Oval" cx="29" cy="8" fill="#cf976a" rx="13" ry="4"/><path id="Path" d="m35 9h-12c-.5522847 0-1-.44771525-1-1s.4477153-1 1-1h12c.5522847 0 1 .44771525 1 1s-.4477153 1-1 1z" fill="#a56a43"/><path id="Path" d="m57.45 30.82-10.45 11.18v8c0 4.42-8.06 8-18 8s-18-3.58-18-8v-18l-10.45-11.18c-.64878576-.7130875-.73113909-1.7754455-.2-2.58l2.2-3.3c.61577647-.9203201 1.83802038-1.2084205 2.8-.66l5.65 3.23v-9.51c0 4.42 8.06 8 18 8s18-3.58 18-8v19.51l5.65-3.23c.9619796-.5484205 2.1842235-.2603201 2.8.66l2.2 3.3c.5311391.8045545.4487858 1.8669125-.2 2.58z" fill="#a56a43"/><g fill="#805333"><path id="Path" d="m18 14.33v18.67c0 .5522847-.4477153 1-1 1s-1-.4477153-1-1v-19.47c.6513157.3035482 1.319014.5706275 2 .8z"/><path id="Path" d="m18 38v18.33c-.680986-.2293725-1.3486843-.4964518-2-.8v-17.53c0-.5522847.4477153-1 1-1s1 .4477153 1 1z"/><path id="Path" d="m26 15.89v27.11c0 .5522847-.4477153 1-1 1s-1-.4477153-1-1v-27.31c.65.08 1.32.15 2 .2z"/><path id="Path" d="m26 49v8.89c-.68-.05-1.35-.12-2-.2v-8.69c0-.5522847.4477153-1 1-1s1 .4477153 1 1z"/><path id="Path" d="m34 42v15.69c-.65.08-1.32.15-2 .2v-15.89c0-.5522847.4477153-1 1-1s1 .4477153 1 1z"/><path id="Path" d="m34 15.69v21.31c0 .5522847-.4477153 1-1 1s-1-.4477153-1-1v-21.11c.68-.05 1.35-.12 2-.2z"/><path id="Path" d="m41 32v23.96c-.63.25-1.3.48-2 .69v-24.65c0-.5522847.4477153-1 1-1s1 .4477153 1 1z"/><path id="Path" d="m41 13.96v12.04c0 .5522847-.4477153 1-1 1s-1-.4477153-1-1v-11.35c.7-.21 1.37-.44 2-.69z"/><path id="Path" d="m52 24.65v5.35c0 .5522847-.4477153 1-1 1s-1-.4477153-1-1v-4.21z"/><path id="Path" d="m52 34v2.65l-2 2.14v-4.79c0-.5522847.4477153-1 1-1s1 .4477153 1 1z"/><path id="Path" d="m8 15.79v4.21c0 .5522847-.44771525 1-1 1s-1-.4477153-1-1v-5.35z"/><path id="Path" d="m8 24v4.79l-2-2.14v-2.65c0-.5522847.44771525-1 1-1s1 .4477153 1 1z"/></g></g></g></svg>