<svg xmlns="http://www.w3.org/2000/svg" xmlns:xlink="http://www.w3.org/1999/xlink" version="1.1" width="400,317.3333333333333" height="undefined" style=""><rect id="backgroundrect" width="100%" height="100%" x="0" y="0" fill="none" stroke="none"/><g class="currentLayer" style=""><title>Layer 1</title><g id="svgg" class="selected" fill="#ffffff" fill-opacity="1"><path id="path0" d="M612.356,98.278 C611.75,98.833 611.296,99.478 611.348,99.712 C611.4,99.946 611.2570000000001,100.099 611.031,100.053 C610.804,100.006 610.655,100.147 610.698,100.365 C610.745,100.598 610.45,100.762 609.9839999999999,100.762 C609.548,100.762 609.19,100.907 609.19,101.084 C609.19,101.532 603.23,107.101 602.7429999999999,107.108 C602.602,107.11 602.575,107.254 602.683,107.429 C602.79,107.603 602.737,107.746 602.564,107.746 C602.391,107.746 601.576,108.457 600.7529999999999,109.327 C599.9300000000001,110.196 598.99,110.992 598.663,111.096 C598.337,111.199 598.152,111.416 598.252,111.578 C598.352,111.74 598.3009999999999,111.873 598.137,111.873 C597.793,111.873 595.331,114.031 593.7,115.762 C593.083,116.417 592.4590000000001,116.952 592.313,116.952 C592.167,116.952 591.784,117.202 591.461,117.508 C591.138,117.813 590.061,118.77799999999999 589.068,119.651 C588.075,120.524 586.798,121.667 586.231,122.19 C585.664,122.714 584.45,123.768 583.532,124.532 C582.614,125.29599999999999 581.6610000000001,126.313 581.414,126.791 C581.1220000000001,127.35499999999999 580.614,127.731 579.969,127.86000000000001 C579.342,127.98599999999999 578.912,128.29500000000002 578.807,128.696 C578.7139999999999,129.05 578.374,129.333 578.042,129.333 C577.713,129.333 577.444,129.454 577.444,129.602 C577.444,129.75 577.168,130 576.83,130.15800000000002 C576.492,130.315 575.6,130.978 574.846,131.629 C574.093,132.281 572.548,133.564 571.413,134.481 C570.278,135.397 569.278,136.225 569.19,136.32 C569.1030000000001,136.415 568.389,136.988 567.6030000000001,137.59300000000002 C566.817,138.198 566.127,138.802 566.069,138.934 C566.011,139.066 565.761,139.175 565.513,139.175 C565.266,139.175 565.063,139.308 565.063,139.471 C565.063,139.63400000000001 564.813,139.847 564.508,139.945 C564.202,140.043 563.31,140.698 562.524,141.401 C561.738,142.10399999999998 560.524,143.06900000000002 559.825,143.546 C559.127,144.023 558.508,144.52 558.45,144.651 C558.392,144.78199999999998 558.137,144.889 557.884,144.889 C557.631,144.889 557.342,145.103 557.242,145.365 C557.141,145.627 556.86,145.841 556.617,145.841 C556.374,145.841 556.175,145.984 556.175,146.159 C556.175,146.333 556.037,146.476 555.8679999999999,146.476 C555.7,146.476 555.141,146.869 554.627,147.349 C553.136,148.742 551.918,149.642 551.519,149.647 C551.315,149.649 551.101,149.775 551.042,149.927 C550.984,150.079 550.098,150.738 549.072,151.39 C548.047,152.043 547.135,152.855 547.047,153.195 C546.954,153.548 546.702,153.744 546.46,153.65 C546.226,153.561 545.826,153.696 545.572,153.95 C545.317,154.204 545.021,154.413 544.913,154.413 C544.8050000000001,154.413 544.36,154.77 543.924,155.20600000000002 C543.487,155.643 542.992,156 542.8240000000001,156 C542.425,156 540.441,157.912 540.525,158.216 C540.56,158.344 540.231,158.41 539.793,158.362 C539.177,158.29399999999998 539.0740000000001,158.36599999999999 539.335,158.68099999999998 C539.596,158.996 539.492,159.06799999999998 538.876,159 C538.438,158.952 538.079,159.043 538.079,159.203 C538.079,159.362 537.899,159.492 537.679,159.492 C537.4590000000001,159.492 536.7090000000001,159.993 536.012,160.606 C535.316,161.21800000000002 534.032,162.179 533.159,162.74200000000002 C532.2860000000001,163.304 531.383,163.946 531.152,164.168 C530.921,164.39 530.59,164.571 530.4159999999999,164.571 C530.2429999999999,164.571 529.5740000000001,164.964 528.931,165.44400000000002 C528.289,165.925 527.619,166.422 527.4449999999999,166.551 C527.27,166.679 526.663,167.156 526.095,167.611 C525.528,168.065 525.063,168.353 525.063,168.25 C525.063,168.148 524.813,168.287 524.508,168.561 C523.688,169.29500000000002 519.217,172.394 518.181,172.946 C517.33,173.4 515.976,174.452 514.8779999999999,175.514 C514.602,175.781 514.283,176 514.17,176 C513.841,176 510.312,178.30200000000002 510.196,178.59300000000002 C510.13800000000003,178.738 509.88300000000004,178.857 509.63,178.857 C509.377,178.857 509.08799999999997,179.071 508.988,179.333 C508.887,179.595 508.659,179.81 508.481,179.81 C508.303,179.81 507.211,180.50900000000001 506.055,181.365 C504.898,182.22 502.81,183.678 501.413,184.606 C500.01599999999996,185.53300000000002 498.825,186.405 498.767,186.543 C498.709,186.68099999999998 498.495,186.796 498.291,186.799 C498.087,186.80200000000002 497.584,187.159 497.173,187.59300000000002 C496.762,188.026 496.28200000000004,188.381 496.10699999999997,188.381 C495.932,188.381 495.874,188.603 495.978,188.874 C496.082,189.14499999999998 496.038,189.286 495.879,189.188 C495.721,189.09 495.375,189.226 495.11199999999997,189.489 C494.848,189.753 494.418,189.96800000000002 494.156,189.96800000000002 C493.895,189.96800000000002 493.48900000000003,190.16 493.254,190.394 C493.02,190.62900000000002 492.483,191.005 492.06100000000004,191.231 C491.16999999999996,191.708 490.622,192.131 489.89099999999996,192.905 C489.603,193.20999999999998 489.22,193.461 489.041,193.462 C488.861,193.463 488.286,193.857 487.762,194.339 C487.238,194.82 485.845,195.84699999999998 484.66700000000003,196.62 C483.488,197.393 482.524,198.15 482.524,198.301 C482.524,198.453 482.381,198.489 482.206,198.381 C482.03200000000004,198.273 481.889,198.332 481.889,198.513 C481.889,198.69299999999998 481.496,199.049 481.01599999999996,199.304 C480.536,199.559 479.756,200.13400000000001 479.284,200.582 C478.81100000000004,201.03 478.302,201.397 478.153,201.397 C478.004,201.397 477.547,201.709 477.137,202.091 C476.473,202.709 475.445,203.453 472.201,205.66500000000002 C471.569,206.096 471.279,206.53300000000002 471.345,206.952 C471.42,207.418 471.37,207.475 471.157,207.164 C470.953,206.868 470.877,207.025 470.901,207.688 C470.921,208.20999999999998 471.05899999999997,208.561 471.209,208.46800000000002 C471.359,208.376 471.403,209.53300000000002 471.307,211.039 C471.211,212.54500000000002 471.258,213.77800000000002 471.411,213.77800000000002 C471.563,213.77800000000002 471.621,214.14600000000002 471.54,214.59699999999998 C471.45799999999997,215.047 471.514,215.34 471.665,215.24599999999998 C471.81600000000003,215.15300000000002 471.91200000000003,215.392 471.878,215.777 C471.845,216.161 471.904,216.619 472.01,216.79399999999998 C472.209,217.123 472.298,217.663 472.44100000000003,219.399 C472.486,219.959 472.797,220.61700000000002 473.131,220.861 C473.53,221.15300000000002 473.664,221.498 473.522,221.86700000000002 C473.404,222.17700000000002 473.442,222.59300000000002 473.60699999999997,222.792 C473.773,222.99200000000002 473.94,224.343 473.978,225.796 C474.016,227.248 474.164,229.031 474.307,229.758 C474.676,231.643 475.242,235.015 475.406,236.317 C475.718,238.786 476.492,244.145 476.645,244.889 C476.734,245.325 476.879,246.54 476.967,247.587 C477.242,250.865 477.473,251.873 477.949,251.873 C478.323,251.873 478.396,253.195 478.392,259.889 C478.389,265.126 478.282,267.74 478.08299999999997,267.429 C477.879,267.111 477.845,267.523 477.979,268.669 C478.126,269.924 478.081,270.324 477.81399999999996,270.159 C477.57,270.00800000000004 477.471,270.202 477.516,270.744 C477.553,271.19100000000003 477.653,271.55600000000004 477.738,271.55600000000004 C478.01099999999997,271.55600000000004 479.991,269.206 480.48,268.302 C480.74,267.821 481.092,267.429 481.262,267.429 C481.432,267.429 481.571,267.24 481.571,267.01 C481.571,266.779 481.89300000000003,266.293 482.286,265.929 C483.28200000000004,265.006 484.897,263.178 484.901,262.96799999999996 C484.903,262.871 485.43899999999996,262.228 486.092,261.539 C486.746,260.85 487.281,260.196 487.283,260.086 C487.284,259.976 487.821,259.308 488.476,258.601 C489.904,257.06 490.46000000000004,256.39 490.46000000000004,256.212 C490.46000000000004,256.075 491.68,254.609 492.906,253.271 C493.291,252.851 493.53499999999997,252.508 493.447,252.508 C493.36,252.508 493.61699999999996,252.162 494.017,251.739 C495.53200000000004,250.141 496.09000000000003,249.485 496.13,249.253 C496.153,249.121 496.565,248.56 497.046,248.005 C501.66999999999996,242.671 502.196,242.032 501.96299999999997,242.032 C501.855,242.032 501.98400000000004,241.853 502.249,241.635 C502.514,241.417 503.5,240.238 504.44100000000003,239.016 C505.38300000000004,237.794 506.443,236.505 506.799,236.152 C507.154,235.798 508.587,234.085 509.98400000000004,232.344 C511.381,230.602 513.078,228.57 513.755,227.827 C514.432,227.084 514.89,226.476 514.774,226.476 C514.657,226.476 515.1030000000001,225.892 515.765,225.178 C516.427,224.465 517.094,223.659 517.2470000000001,223.388 C517.575,222.808 518.585,221.57299999999998 519.587,220.527 C519.98,220.11599999999999 520.302,219.696 520.302,219.59300000000002 C520.302,219.49 520.623,219.076 521.016,218.673 C522.648,216.999 523,216.575 523,216.28300000000002 C523,216.115 523.144,215.875 523.319,215.75 C523.495,215.626 524.02,215.024 524.487,214.413 C524.954,213.80200000000002 525.703,212.887 526.152,212.37900000000002 C526.601,211.872 526.968,211.336 526.968,211.189 C526.968,211.041 527.075,210.95600000000002 527.206,211 C527.337,211.04399999999998 527.444,211.005 527.444,210.913 C527.444,210.822 527.775,210.393 528.179,209.961 C528.583,209.52800000000002 529.512,208.394 530.2429999999999,207.44 C530.9739999999999,206.486 531.789,205.482 532.056,205.20999999999998 C532.322,204.937 533.393,203.64600000000002 534.435,202.341 C535.4780000000001,201.036 536.413,199.897 536.513,199.81 C536.613,199.72199999999998 537.315,198.79399999999998 538.0740000000001,197.74599999999998 C538.832,196.69799999999998 539.929,195.438 540.512,194.945 C541.095,194.452 541.571,193.845 541.571,193.596 C541.571,193.34699999999998 541.705,193.143 541.869,193.143 C542.032,193.143 542.767,192.286 543.502,191.238 C544.237,190.19 544.969,189.333 545.1279999999999,189.333 C545.288,189.333 545.337,189.202 545.238,189.041 C545.139,188.881 545.4110000000001,188.471 545.843,188.131 C546.2760000000001,187.791 546.592,187.458 546.545,187.39100000000002 C546.499,187.325 547.235,186.48399999999998 548.181,185.524 C549.126,184.563 549.7529999999999,184.063 549.573,184.413 C549.0550000000001,185.422 546.396,189.429 545.782,190.128 C544.946,191.079 543.476,193.401 543.476,193.77100000000002 C543.476,193.949 543.33,194.095 543.152,194.095 C542.9739999999999,194.095 542.658,194.488 542.452,194.96800000000002 C542.245,195.44799999999998 541.6759999999999,196.362 541.189,196.998 C540.701,197.63400000000001 540.302,198.29500000000002 540.302,198.46699999999998 C540.302,198.639 540.1,198.947 539.854,199.151 C539.608,199.35500000000002 538.572,200.76600000000002 537.552,202.285 C536.533,203.804 535.611,205.119 535.505,205.20600000000002 C535.398,205.29399999999998 535.061,205.852 534.7570000000001,206.446 C534.452,207.041 534.072,207.684 533.913,207.875 C533.754,208.066 533.187,208.865 532.654,209.651 C528.936,215.132 528.008,216.515 527.462,217.39100000000002 C527.1220000000001,217.935 526.408,218.97199999999998 525.874,219.69400000000002 C524.659,221.339 524.6220000000001,221.394 521.624,226 C520.26,228.095 518.904,230.006 518.612,230.245 C518.319,230.485 518.079,230.853 518.079,231.063 C518.079,231.273 517.44,232.291 516.659,233.326 C515.8779999999999,234.36 515.235,235.319 515.231,235.458 C515.226,235.596 514.944,236.007 514.605,236.372 C514.265,236.737 513.586,237.802 513.097,238.739 C512.607,239.676 512.028,240.443 511.81,240.444 C511.591,240.444 511.413,240.637 511.413,240.871 C511.413,241.106 511.05600000000004,241.713 510.619,242.22 C510.183,242.728 509.826,243.314 509.826,243.524 C509.826,243.733 509.575,244.051 509.27,244.229 C508.964,244.407 508.827,244.556 508.96500000000003,244.562 C509.103,244.567 508.911,244.893 508.539,245.286 C508.16700000000003,245.679 507.58000000000004,246.596 507.23400000000004,247.324 C506.88800000000003,248.052 506.401,248.726 506.151,248.822 C505.902,248.918 505.698,249.215 505.698,249.482 C505.698,249.749 505.591,249.969 505.46000000000004,249.97 C505.14099999999996,249.973 503.61400000000003,252.246 503.714,252.57 C503.75800000000004,252.71 503.644,252.825 503.461,252.825 C503.278,252.825 502.953,253.218 502.74,253.698 C502.323,254.635 500.01599999999996,258.277 499.673,258.53999999999996 C499.356,258.783 497.44399999999996,261.642 497.44399999999996,261.874 C497.44399999999996,261.985 497.26599999999996,262.276 497.048,262.52 C496.106,263.57 495.85699999999997,263.929 495.85699999999997,264.241 C495.85699999999997,264.423 495.748,264.571 495.615,264.571 C495.48199999999997,264.571 495.23199999999997,264.83799999999997 495.05899999999997,265.164 C494.012,267.14599999999996 492.757,268.985 492.576,268.804 C492.46000000000004,268.688 492.365,268.831 492.365,269.122 C492.365,269.413 492.214,269.651 492.029,269.651 C491.844,269.651 491.78200000000004,269.79499999999996 491.89,269.97 C491.999,270.14599999999996 491.865,270.376 491.592,270.481 C491.31899999999996,270.58500000000004 491.095,270.87 491.095,271.113 C491.095,271.35699999999997 490.952,271.55600000000004 490.778,271.55600000000004 C490.603,271.55600000000004 490.46000000000004,271.692 490.46000000000004,271.858 C490.46000000000004,272.024 489.817,273.08000000000004 489.03200000000004,274.204 C488.246,275.328 487.603,276.35 487.603,276.475 C487.603,276.6 487.246,277.126 486.81,277.645 C486.373,278.164 486.01599999999996,278.76 486.01599999999996,278.97 C486.01599999999996,279.18 485.71799999999996,279.562 485.35400000000004,279.81899999999996 C484.99,280.076 484.471,280.714 484.2,281.238 C483.928,281.762 483.289,282.722 482.779,283.371 C482.26800000000003,284.02099999999996 481.829,284.842 481.802,285.197 C481.776,285.551 481.587,285.841 481.384,285.841 C481.18,285.841 480.841,286.25800000000004 480.63,286.767 C480.419,287.277 479.812,288.16999999999996 479.282,288.752 C478.752,289.33299999999997 477.819,290.595 477.21,291.55600000000004 C474.898,295.197 474.56600000000003,295.71500000000003 473.78700000000003,296.9 C473.347,297.56899999999996 472.74,298.395 472.438,298.735 C472.13599999999997,299.074 471.61,299.848 471.269,300.454 C470.929,301.06 470.173,302.18100000000004 469.59000000000003,302.946 C469.007,303.711 468.334,304.804 468.095,305.376 C467.41700000000003,306.998 465.51300000000003,309.674 465.223,309.411 C465.079,309.281 465.06399999999996,309.352 465.18899999999996,309.57 C465.429,309.986 463.879,312.281 463.512,312.054 C463.395,311.98199999999997 463.057,312.347 462.76,312.865 C462.446,313.41200000000003 462.383,313.709 462.609,313.573 C462.828,313.442 462.79,313.605 462.524,313.945 C462.262,314.278 461.875,314.77 461.663,315.038 C460.102,317.01099999999997 458.079,319.89099999999996 458.079,320.14099999999996 C458.079,320.308 457.937,320.44399999999996 457.762,320.44399999999996 C457.587,320.44399999999996 457.444,320.73 457.444,321.079 C457.444,321.429 457.312,321.714 457.149,321.714 C456.877,321.714 454.905,324.397 454.905,324.767 C454.905,324.85699999999997 454.548,325.399 454.111,325.972 C453.675,326.544 453.317,327.155 453.317,327.33000000000004 C453.317,327.505 453.032,327.906 452.683,328.222 C452.33299999999997,328.538 452.048,328.926 452.048,329.084 C452.048,329.241 451.61400000000003,329.90999999999997 451.085,330.56899999999996 C450.43600000000004,331.376 450.187,331.96500000000003 450.321,332.375 C450.44100000000003,332.74 450.413,332.839 450.252,332.622 C450.055,332.356 449.882,332.371 449.597,332.678 C449.29200000000003,333.007 449.29200000000003,333.13 449.597,333.253 C449.851,333.356 449.821,333.41999999999996 449.508,333.43899999999996 C449.246,333.45500000000004 448.471,334.288 447.78499999999997,335.28999999999996 C444.149,340.603 441.351,344.827 440.959,345.598 C440.716,346.075 440.255,346.748 439.933,347.092 C439.61199999999997,347.437 439.349,347.847 439.349,348.003 C439.349,348.159 438.919,348.73699999999997 438.394,349.286 C437.869,349.836 437.517,350.286 437.613,350.286 C437.70799999999997,350.286 437.495,350.598 437.139,350.98 C436.783,351.363 436.492,351.836 436.492,352.032 C436.492,352.228 436.242,352.672 435.937,353.02 C435.631,353.367 435.18,354.001 434.93399999999997,354.429 C434.688,354.856 433.902,355.976 433.188,356.918 C431.852,358.678 430.611,360.558 430.23199999999997,361.397 C430.113,361.659 429.762,362.146 429.452,362.48 C429.142,362.814 428.619,363.632 428.29,364.297 C427.961,364.962 427.6,365.415 427.48900000000003,365.303 C427.377,365.192 427.286,365.462 427.286,365.905 C427.286,366.695 429.58,367.868 431.852,368.238 C432.222,368.299 432.952,368.431 433.476,368.532 C435.133,368.853 447.402,368.916 448.397,368.608 C448.921,368.447 449.992,368.271 450.778,368.219 C451.563,368.167 452.563,368.042 453,367.941 C453.437,367.839 454.222,367.655 454.746,367.531 C455.27,367.407 455.77,367.296 455.85699999999997,367.284 C455.944,367.272 456.444,367.104 456.968,366.909 C458.056,366.506 461.533,365.445 462.126,365.336 C462.343,365.296 463.557,364.862 464.824,364.372 C466.091,363.881 467.198,363.469 467.286,363.455 C467.899,363.356 469.063,362.85 469.214,362.616 C469.31399999999996,362.461 469.742,362.268 470.165,362.186 C470.58799999999997,362.105 470.983,361.893 471.04200000000003,361.715 C471.101,361.538 471.269,361.467 471.414,361.556 C471.56,361.646 471.905,361.494 472.181,361.218 C472.457,360.942 472.683,360.799 472.683,360.901 C472.683,361.077 473.26800000000003,360.776 478.238,358.036 C479.46,357.363 480.567,356.843 480.698,356.882 C480.829,356.921 480.937,356.81 480.937,356.635 C480.937,356.46 481.151,356.317 481.413,356.317 C481.675,356.317 481.889,356.108 481.889,355.851 C481.889,355.567 482.075,355.456 482.365,355.568 C482.627,355.668 482.841,355.584 482.841,355.38 C482.841,355.177 482.98400000000004,355.098 483.159,355.206 C483.33299999999997,355.314 483.476,355.243 483.476,355.048 C483.476,354.852 483.603,354.771 483.75800000000004,354.867 C483.91200000000003,354.962 484.203,354.844 484.403,354.603 C484.603,354.362 486.619,352.921 488.88300000000004,351.402 C491.147,349.88300000000004 493,348.502 493,348.33299999999997 C493,348.164 493.14300000000003,348.11400000000003 493.317,348.222 C493.49199999999996,348.33000000000004 493.635,348.279 493.635,348.108 C493.635,347.937 494.135,347.48900000000003 494.746,347.111 C495.35699999999997,346.733 495.85699999999997,346.222 495.85699999999997,345.974 C495.85699999999997,345.726 496.015,345.524 496.209,345.524 C496.66200000000003,345.524 500.342,342.63800000000003 502.265,340.774 C503.77099999999996,339.315 506.60400000000004,336.76800000000003 507.764,335.83000000000004 C508.11199999999997,335.548 508.183,335.41999999999996 507.921,335.54499999999996 C507.659,335.66999999999996 508.909,334.352 510.698,332.616 C512.488,330.88 513.952,329.227 513.952,328.943 C513.952,328.65999999999997 514.142,328.381 514.375,328.325 C514.758,328.23199999999997 516.4,326.449 518.653,323.679 C519.123,323.101 519.758,322.351 520.063,322.012 C520.369,321.674 520.516,321.397 520.39,321.397 C520.264,321.397 520.456,321.19 520.817,320.937 C521.357,320.55899999999997 524.277,316.698 525.54,314.69399999999996 C525.896,314.128 527.732,311.651 528.337,310.921 C528.554,310.659 528.751,310.318 528.775,310.16200000000003 C528.799,310.007 528.9490000000001,309.793 529.109,309.68600000000004 C529.343,309.529 531.672,305.90999999999997 533.727,302.50800000000004 C533.938,302.159 534.183,301.802 534.27,301.714 C534.357,301.627 534.682,301.05600000000004 534.991,300.44399999999996 C535.3,299.83299999999997 535.894,298.762 536.311,298.063 C536.727,297.365 537.74,295.437 538.56,293.778 C539.381,292.119 540.159,290.69 540.289,290.603 C540.5989999999999,290.395 543.159,284.97900000000004 543.159,284.531 C543.159,284.22 544.6759999999999,280.744 545.375,279.452 C545.529,279.168 545.755,278.382 545.877,277.706 C546.146,276.21799999999996 546.592,275.291 546.937,275.505 C547.077,275.591 547.362,275.05899999999997 547.571,274.323 C547.779,273.587 548.08,272.698 548.24,272.349 C548.756,271.219 551.3009999999999,264.16999999999996 552.179,261.44 C552.649,259.98 553.252,258.45 553.52,258.041 C553.788,257.632 553.922,257.161 553.819,256.993 C553.716,256.826 553.8,256.63300000000004 554.006,256.56399999999996 C554.237,256.48699999999997 554.366,255.805 554.343,254.783 C554.318,253.699 554.421,253.199 554.639,253.334 C554.857,253.468 554.894,253.293 554.746,252.825 C554.605,252.38 554.638,252.184 554.835,252.306 C555.008,252.413 555.327,252.288 555.543,252.028 C555.758,251.768 555.81,251.553 555.658,251.551 C555.506,251.548 555.535,251.441 555.723,251.313 C555.9110000000001,251.184 557.029,248.151 558.206,244.571 C559.384,240.992 560.539,237.635 560.773,237.111 C561.265,236.011 561.995,233.837 562.106,233.143 C562.148,232.881 562.671,231.242 563.268,229.5 C563.865,227.758 564.283,226.149 564.197,225.924 C564.111,225.7 564.203,225.319 564.403,225.078 C564.6030000000001,224.838 564.797,224.197 564.835,223.654 C564.874,223.112 564.976,222.668 565.063,222.667 C565.1510000000001,222.667 565.244,222.291 565.271,221.83100000000002 C565.297,221.372 565.456,220.90800000000002 565.623,220.8 C565.913,220.613 566.979,218.72199999999998 566.983,218.388 C566.987,218.11 567.323,217.12900000000002 567.586,216.625 C567.726,216.357 567.957,215.643 568.1,215.037 C568.4110000000001,213.724 568.405,213.745 568.626,213.143 C568.794,212.686 571.26,204.861 572.278,201.55599999999998 C572.547,200.683 572.903,199.796 573.069,199.58499999999998 C573.236,199.375 573.282,199.05700000000002 573.173,198.88 C573.063,198.703 573.194,198.221 573.4639999999999,197.809 C573.734,197.397 573.859,196.965 573.742,196.848 C573.625,196.731 573.683,196.635 573.8720000000001,196.635 C574.06,196.635 574.314,196.02800000000002 574.437,195.286 C574.559,194.54399999999998 574.811,193.749 574.996,193.51999999999998 C575.182,193.29000000000002 575.313,192.29000000000002 575.287,191.297 C575.26,190.22899999999998 575.3489999999999,189.66500000000002 575.505,189.91500000000002 C575.818,190.418 577.1469999999999,187.262 577.756,184.571 C577.973,183.611 578.357,182.433 578.609,181.952 C578.861,181.47199999999998 578.995,181.079 578.906,181.079 C578.816,181.079 579.093,180.329 579.519,179.413 C579.946,178.49599999999998 580.297,177.425 580.298,177.03199999999998 C580.3,176.639 580.444,176.317 580.619,176.317 C580.794,176.317 580.914,176.20999999999998 580.886,176.079 C580.8389999999999,175.85500000000002 580.9449999999999,175.50900000000001 581.4739999999999,174.175 C581.595,173.869 581.715,173.476 581.742,173.30200000000002 C581.768,173.127 581.955,172.582 582.157,172.09 C582.359,171.599 582.5260000000001,171.099 582.528,170.97899999999998 C582.53,170.86 583.101,169.19799999999998 583.798,167.287 C584.494,165.375 585.063,163.482 585.063,163.07999999999998 C585.063,162.678 585.222,162.349 585.415,162.349 C585.6320000000001,162.349 585.691,162.04500000000002 585.568,161.55599999999998 C585.458,161.119 585.499,160.762 585.657,160.762 C585.816,160.762 585.939,160.583 585.931,160.365 C585.893,159.345 586.043,158.836 586.33,159.014 C586.51,159.125 586.563,158.997 586.454,158.715 C586.338,158.412 586.439,158.222 586.716,158.222 C587.139,158.222 588.117,156.30700000000002 587.9449999999999,155.81799999999998 C587.902,155.695 588,155.507 588.164,155.401 C588.328,155.29399999999998 588.751,154.421 589.104,153.46 C590.943,148.463 593.793,141.21800000000002 593.9739999999999,141.079 C594.343,140.796 595.246,138.857 595.008,138.857 C594.881,138.857 594.9490000000001,138.686 595.159,138.476 C595.3679999999999,138.267 595.54,137.912 595.54,137.689 C595.54,137.465 596.0889999999999,136.101 596.761,134.657 C597.433,133.213 598.2429999999999,131.317 598.562,130.44400000000002 C598.88,129.571 599.275,128.68 599.439,128.464 C599.6030000000001,128.248 599.655,127.85499999999999 599.553,127.59100000000001 C599.4449999999999,127.30799999999999 599.546,127.11099999999999 599.8009999999999,127.11099999999999 C600.038,127.11099999999999 600.322,126.754 600.432,126.31700000000001 C600.542,125.881 600.771,125.524 600.943,125.524 C601.114,125.524 601.254,125.167 601.254,124.73 C601.254,124.294 601.3969999999999,123.937 601.571,123.937 C601.746,123.937 601.856,123.82900000000001 601.816,123.69800000000001 C601.7760000000001,123.56700000000001 602.222,122.46000000000001 602.806,121.238 C605.425,115.758 608.644,109.133 608.898,108.69800000000001 C609.9200000000001,106.949 610.648,105.164 610.402,105.012 C610.242,104.913 610.476,104.495 610.921,104.082 C611.366,103.669 611.73,103.159 611.73,102.94800000000001 C611.73,102.517 613.284,99.743 613.6700000000001,99.484 C613.807,99.392 613.7860000000001,99.106 613.623,98.849 C613.2139999999999,98.202 613.244,97.822 613.684,98.094 C613.9010000000001,98.228 613.9649999999999,98.182 613.841,97.981 C613.725,97.794 613.81,97.569 614.03,97.481 C614.3009999999999,97.372 614.273,97.312 613.944,97.295 C613.677,97.281 612.963,97.724 612.356,98.278 M454.043,125.68299999999999 C454.046,126.556 454.10699999999997,126.875 454.18,126.392 C454.253,125.91 454.251,125.196 454.176,124.805 C454.1,124.41499999999999 454.041,124.81 454.043,125.68299999999999 M477.892,259.175 C477.892,262.23 477.94,263.48 477.998,261.952 C478.056,260.425 478.056,257.925 477.998,256.397 C477.94,254.869 477.892,256.119 477.892,259.175 M425.293,333.808 C423.154,335.053 414.846,335.529 404.825,334.98 C403.522,334.909 403.154,334.993 403.136,335.365 C403.122,335.683 403.023,335.63 402.841,335.206 C402.593,334.629 402.569,334.64300000000003 402.577,335.365 C402.592,336.908 403.339,339.336 403.769,339.24199999999996 C404.085,339.172 404.146,339.519 404.021,340.68100000000004 C403.919,341.63 404.012,342.503 404.267,342.97900000000004 C404.493,343.401 404.60699999999997,343.93 404.52,344.156 C404.43399999999997,344.382 404.591,344.654 404.87,344.76099999999997 C405.149,344.868 405.298,345.08299999999997 405.202,345.24 C405.105,345.39599999999996 405.273,345.524 405.574,345.524 C405.875,345.524 406.033,345.61199999999997 405.925,345.72 C405.817,345.828 405.944,346.13300000000004 406.20799999999997,346.39599999999996 C406.472,346.65999999999997 406.605,347.091 406.503,347.355 C406.269,347.964 407.342,350.233 408.99,352.613 L410.271,354.465 L410.90999999999997,353.566 C411.262,353.071 412.019,352.188 412.592,351.603 C413.166,351.01800000000003 413.635,350.423 413.635,350.28 C413.635,350.13800000000003 413.742,349.974 413.873,349.91499999999996 C414.564,349.608 415.811,347.673 415.635,347.182 C415.527,346.881 415.55,346.735 415.686,346.858 C415.822,346.981 416.13,346.884 416.371,346.642 C416.918,346.096 416.943,345.727 416.413,346.03200000000004 C416.194,346.158 416.127,346.13800000000003 416.263,345.98900000000003 C416.399,345.839 416.746,345.683 417.033,345.64 C417.32,345.598 417.689,345.326 417.852,345.03499999999997 C418.015,344.744 418.609,344.05600000000004 419.173,343.507 C419.73699999999997,342.957 420.609,341.937 421.111,341.238 C421.613,340.53999999999996 422.273,339.719 422.577,339.414 C426.102,335.88 427.818,332.33799999999997 425.293,333.808 " stroke="none" fill="#ffffff" fill-rule="evenodd" fill-opacity="1"/><path id="path1" d="M452.821,105.633 C452.491,106.184 451.546,107.92099999999999 450.72,109.492 C449.894,111.063 448.765,113.206 448.211,114.254 C447.657,115.30199999999999 446.571,117.15899999999999 445.797,118.381 C443.365,122.223 441.254,125.92699999999999 441.254,126.352 C441.254,126.578 441.06,126.876 440.823,127.01599999999999 C440.404,127.262 435.245,134.867 435.199,135.30599999999998 C435.187,135.426 434.477,136.452 433.622,137.587 C432.767,138.722 431.211,140.865 430.165,142.349 C427.93899999999996,145.506 420.722,154.816 419.53,156.07 C419.078,156.54500000000002 418.745,157.094 418.79,157.29 C418.836,157.486 418.599,157.812 418.264,158.014 C417.481,158.486 415.98,160.139 414.65,161.997 C414.074,162.80200000000002 413.217,163.825 412.745,164.272 C412.274,164.71800000000002 411.603,165.434 411.254,165.864 C410.905,166.293 409.984,167.428 409.207,168.386 C408.43,169.34300000000002 407.001,170.99099999999999 406.032,172.046 C405.063,173.101 403.575,174.816 402.726,175.856 C401.877,176.89499999999998 400.52,178.478 399.71,179.374 C396.923,182.45499999999998 392.206,188.112 392.206,188.372 C392.206,188.515 391.56,189.255 390.771,190.015 C389.515,191.224 385.343,196.175 385.395,196.39499999999998 C385.406,196.44 384.748,197.19 383.933,198.063 C383.118,198.937 382.012,200.29399999999998 381.476,201.079 C380.94,201.865 379.753,203.34199999999998 378.838,204.361 C377.924,205.38 376.774,206.808 376.282,207.535 C375.791,208.262 374.602,209.834 373.639,211.027 C370.519,214.89600000000002 367.286,219.42700000000002 367.286,219.93200000000002 C367.286,220.13 366.907,220.701 366.444,221.2 C362.691,225.247 355.357,243.087 354.692,249.788 C354.586,250.847 354.39,251.857 354.254,252.032 C352.548,254.235 352.793,279.791 354.551,282.98699999999997 C354.696,283.25 355.056,284.608 355.351,286.003 C357.38,295.598 363.199,306.709 369.784,313.562 C375.005,318.996 374.882,318.949 375.863,315.841 C376.084,315.14300000000003 376.364,314.5 376.486,314.413 C376.608,314.325 377.364,312.611 378.165,310.603 C378.967,308.595 380.433,305.024 381.422,302.66700000000003 C382.411,300.31 383.771,296.914 384.445,295.121 C385.118,293.328 385.884,291.471 386.147,290.994 C386.71500000000003,289.961 388.144,286.501 390.765,279.81 C391.826,277.103 392.889,274.53200000000004 393.129,274.095 C393.575,273.283 398.397,261.22 398.397,260.916 C398.397,260.824 398.825,259.85900000000004 399.348,258.77099999999996 C399.87,257.68399999999997 401.70799999999997,253.294 403.432,249.016 C405.156,244.738 407.023,240.167 407.582,238.857 C408.141,237.548 409.457,234.262 410.506,231.556 C411.556,228.849 412.707,226.063 413.064,225.365 C413.422,224.667 414.924,221.024 416.402,217.26999999999998 C417.881,213.51600000000002 419.346,209.873 419.659,209.175 C421.20799999999997,205.713 422.31399999999996,203.029 424.078,198.45499999999998 C425.14,195.701 426.206,193.13 426.447,192.74 C426.689,192.351 428.076,189.001 429.531,185.297 C430.985,181.59199999999998 432.21500000000003,178.601 432.264,178.65 C432.35,178.737 426.748,201.087 426.403,202.03199999999998 C426.308,202.29399999999998 426.205,202.579 426.175,202.667 C426.144,202.75400000000002 426.027,203.04000000000002 425.915,203.30200000000002 C425.802,203.563 424.368,208.99200000000002 422.728,215.365 C421.08799999999997,221.738 419.379,228.238 418.929,229.81 C418.478,231.381 416.955,237.167 415.54200000000003,242.667 C412.79,253.383 412.874,253.065 412.585,253.778 C412.353,254.347 411.138,259.023 408.70799999999997,268.698 C407.721,272.627 406.573,276.913 406.157,278.222 C405.741,279.53200000000004 404.105,285.675 402.521,291.873 C400.937,298.071 399.586,303.35699999999997 399.519,303.619 C399.452,303.881 399.11,305.024 398.76,306.159 C397.449,310.398 393.687,325.741 393.584,327.267 L393.476,328.851 L395.063,329.25 C400.321,330.571 411.349,331.10699999999997 415.698,330.254 C416.571,330.08299999999997 418,329.822 418.873,329.674 C422.36400000000003,329.08299999999997 426.019,327.802 432.206,325 C436.983,322.837 446.968,315.961 446.968,314.836 C446.968,314.594 447.29,314.274 447.683,314.124 C449.152,313.562 456.701,305.164 458.718,301.847 C459.134,301.163 459.57,300.53200000000004 459.687,300.44399999999996 C460.759,299.644 467.334,286.72900000000004 468.091,283.937 C468.115,283.849 468.225,283.563 468.336,283.302 C471.757,275.247 473.558,257.76599999999996 472.356,244.273 C471.503,234.697 469.047,218.826 468.203,217.429 C468.097,217.25400000000002 468.05,216.612 468.098,216.002 C468.146,215.39100000000002 467.76300000000003,212.82 467.246,210.287 C466.729,207.755 465.604,202.149 464.746,197.83100000000002 C463.889,193.512 463.038,189.7 462.855,189.36 C462.673,189.019 462.517,188.195 462.509,187.529 C462.501,186.863 461.854,183.24599999999998 461.072,179.49200000000002 C460.29,175.738 459.139,169.595 458.514,165.841 C457.889,162.087 457.25,158.768 457.093,158.465 C456.937,158.161 456.81,157.298 456.81,156.547 C456.81,155.79500000000002 456.598,153.543 456.339,151.542 C455.758,147.047 454.998,138.85399999999998 454.75,134.413 C454.648,132.579 454.474,130.222 454.365,129.175 C454.255,128.127 454.157,122.237 454.146,116.086 C454.124,104.379 454.027,103.613 452.821,105.633 M552.044,273.046 C551.817,273.885 551.438,274.96000000000004 551.201,275.43600000000004 C550.848,276.145 550.846,276.27099999999996 551.191,276.139 C551.754,275.923 553.094,272.158 552.736,271.799 C552.576,271.64 552.281,272.171 552.044,273.046 M538.5260000000001,302.748 C536.609,305.716 535.792,307.151 535.936,307.29499999999996 C536.024,307.384 536.376,306.985 536.718,306.40999999999997 C537.06,305.83500000000004 537.8679999999999,304.544 538.513,303.53999999999996 C539.158,302.536 539.575,301.71500000000003 539.438,301.716 C539.302,301.71799999999996 538.891,302.182 538.5260000000001,302.748 M534.391,309.73 C533.298,311.584 533.227,311.74199999999996 533.783,311.079 C534.428,310.31100000000004 534.984,309.33299999999997 534.7760000000001,309.33299999999997 C534.693,309.33299999999997 534.52,309.512 534.391,309.73 M532.377,312.568 C532.021,312.95 531.73,313.438 531.73,313.652 C531.73,313.86699999999996 531.552,314.11400000000003 531.333,314.202 C531.052,314.31600000000003 531.046,314.37 531.312,314.38800000000003 C531.64,314.40999999999997 532.403,313.51800000000003 533.125,312.27 C533.486,311.64599999999996 533.088,311.805 532.377,312.568 M509.98400000000004,339.869 C509.635,340.034 509.068,340.552 508.724,341.02 L508.1,341.873 L509.11,341.03 C509.66499999999996,340.567 510.303,340.122 510.528,340.04200000000003 C510.753,339.962 510.865,339.823 510.778,339.73400000000004 C510.69,339.644 510.33299999999997,339.70500000000004 509.98400000000004,339.869 M505.53999999999996,343.701 C504.25,344.64599999999996 503.68899999999996,345.206 504.036,345.206 C504.33000000000004,345.206 506.938,343.01300000000003 506.651,343.007 C506.563,343.006 506.063,343.318 505.53999999999996,343.701 M494.28999999999996,352.832 C493.69,353.345 493.264,353.83 493.345,353.911 C493.425,353.991 494.05899999999997,353.571 494.753,352.977 C495.448,352.383 495.873,351.897 495.698,351.898 C495.524,351.898 494.89,352.319 494.28999999999996,352.832 M491.81,354.727 C490.746,355.375 490.344,355.943 491.33299999999997,355.4 C492.071,354.994 493.2,354.118 493,354.107 C492.913,354.102 492.377,354.381 491.81,354.727 M477.286,363.315 C476.413,363.829 475.841,364.243 476.016,364.236 C476.557,364.215 479.854,362.379 479.349,362.38 C479.087,362.381 478.159,362.801 477.286,363.315 M473.773,365.004 C472.889,365.377 471.639,365.888 470.996,366.139 C470.025,366.517 469.403,367.111 469.978,367.111 C470.322,367.111 475.54,364.599 475.54,364.433 C475.54,364.335 475.504,364.27 475.46,364.289 C475.41700000000003,364.309 474.658,364.63 473.773,365.004 M478.628,413.372 C479.19100000000003,413.442 480.19100000000003,413.443 480.85,413.375 C481.509,413.306 481.048,413.248 479.825,413.247 C478.603,413.246 478.06399999999996,413.302 478.628,413.372 " stroke="none" fill="#ffffff" fill-rule="evenodd" fill-opacity="1"/><path id="path2" d="M746.991,218.725 C744.646,219.49 742.646,220.244 742.546,220.401 C742.447,220.558 741.948,220.686 741.437,220.685 C740.918,220.683 740.331,220.92700000000002 740.104,221.238 C739.855,221.578 739.491,221.715 739.165,221.59 C738.873,221.478 738.473,221.511 738.277,221.66500000000002 C737.887,221.97 733.655,223.264 724.111,225.996 C720.706,226.97 717.421,227.975 716.81,228.229 C716.198,228.483 713.9839999999999,229.124 711.889,229.653 C709.794,230.183 707.831,230.756 707.528,230.927 C707.225,231.098 706.698,231.238 706.356,231.238 C705.5640000000001,231.238 692.684,234.354 692.0409999999999,234.702 C691.419,235.038 681.7080000000001,237.192 677.524,237.922 C676.258,238.143 675.222,238.444 675.222,238.591 C675.222,238.737 674.719,238.857 674.1030000000001,238.857 C672.7470000000001,238.857 661.0360000000001,240.996 660.143,241.407 C659.794,241.568 655.937,242.282 651.571,242.994 C647.206,243.705 643.421,244.374 643.159,244.48 C642.8969999999999,244.586 642.556,244.643 642.402,244.608 C641.9200000000001,244.497 621.448,247.758 620.778,248.052 C620.1800000000001,248.314 616.4,248.949 607.352,250.308 C601.734,251.151 599.837,251.528 599.738,251.82 C599.69,251.962 599.248,252.019 598.755,251.947 C597.937,251.827 585.774,253.749 583.159,254.412 C582.548,254.567 581.476,254.843 580.778,255.024 C580.079,255.20600000000002 578.222,255.56600000000003 576.6510000000001,255.825 C573.125,256.406 557.0260000000001,259.475 556.969,259.577 C556.9449999999999,259.61699999999996 556.462,261.151 555.893,262.98400000000004 C553.696,270.073 553.189,271.514 552.944,271.36199999999997 C552.804,271.276 552.766,271.404 552.859,271.647 C553.066,272.18600000000004 551.785,275.71799999999996 551.223,276.159 C550.605,276.64300000000003 549.098,280.69 549.278,281.38 C549.366,281.714 549.1949999999999,282.248 548.899,282.565 C548.312,283.195 546.016,287.783 546.409,287.53999999999996 C546.542,287.45799999999997 546.6510000000001,287.53499999999997 546.6510000000001,287.712 C546.6510000000001,287.88800000000003 546.454,288.14599999999996 546.213,288.286 C545.691,288.589 543.115,293.629 543.359,293.872 C543.566,294.079 539.9780000000001,301.21000000000004 538.454,303.619 C537.847,304.579 536.215,307.216 534.829,309.478 C533.442,311.74 531.749,314.13300000000004 531.066,314.79499999999996 C530.002,315.828 529.338,317.222 530.064,316.899 C530.1949999999999,316.841 531.624,316.31 533.238,315.71799999999996 C534.8530000000001,315.127 536.175,314.48400000000004 536.175,314.28999999999996 C536.1759999999999,313.976 543.1510000000001,311.238 543.952,311.23699999999997 C544.408,311.236 551.3340000000001,308.578 552.841,307.825 C554.164,307.16499999999996 556.27,306.33299999999997 563.476,303.629 C565.833,302.744 568.492,301.66499999999996 569.385,301.23 C570.278,300.796 571.778,300.168 572.719,299.837 C576.21,298.60400000000004 584.626,295.318 586.217,294.565 C587.123,294.137 589.912,293.01300000000003 592.4159999999999,292.067 C600.716,288.932 602.965,288.039 603.336,287.731 C603.538,287.563 604.831,287.015 606.2090000000001,286.51300000000003 C607.587,286.01099999999997 609.7139999999999,285.212 610.937,284.738 C612.159,284.26300000000003 614.302,283.43600000000004 615.698,282.899 C617.095,282.363 619.095,281.538 620.143,281.067 C621.19,280.596 623.405,279.701 625.063,279.079 C630.329,277.10400000000004 635.3489999999999,275.116 636.3330000000001,274.616 C637.5509999999999,273.997 644.857,271.243 644.973,271.35900000000004 C645.054,271.44 639.134,274.473 619.3489999999999,284.48699999999997 C615.071,286.652 610.357,289.017 608.873,289.743 C607.389,290.469 604.746,291.81899999999996 603,292.744 C601.254,293.668 596.968,295.848 593.476,297.587 C589.984,299.326 586.913,300.895 586.6510000000001,301.073 C586.389,301.25 583.889,302.527 581.095,303.909 C571.366,308.723 561.447,313.727 560.955,314.07 C560.683,314.26 557.994,315.624 554.98,317.102 C551.966,318.579 548.823,320.18399999999997 547.996,320.669 C547.169,321.153 543.886,322.79499999999996 540.701,324.31600000000003 C537.516,325.837 534.73,327.235 534.51,327.424 C534.2909999999999,327.61199999999997 531.361,329.113 527.999,330.76 C524.637,332.40700000000004 521.708,333.903 521.491,334.08299999999997 C520.729,334.71500000000003 511.762,339.101 511.58799999999997,338.927 C511.49199999999996,338.83000000000004 511.413,338.926 511.413,339.14 C511.413,339.35400000000004 511.27,339.44100000000003 511.095,339.33299999999997 C510.921,339.225 510.778,339.337 510.778,339.581 C510.778,339.825 510.456,340.177 510.063,340.363 C509.671,340.548 508.223,341.714 506.846,342.953 C505.47,344.192 504.179,345.206 503.97900000000004,345.206 C503.779,345.206 502.865,345.922 501.949,346.796 C501.03200000000004,347.66999999999996 499.71000000000004,348.746 499.01099999999997,349.188 C498.312,349.629 496.995,350.74 496.084,351.65700000000004 C494.358,353.395 491.988,355.159 490.722,355.648 C489.476,356.13 483.057,360.047 482.048,360.941 C480.169,362.608 467.682,368.397 466.139,368.317 C465.80899999999997,368.3 464.04,368.729 462.206,369.27 C458.367,370.403 453.081,371.402 449.19,371.73 C446.704,371.939 443.696,372.965 443.159,373.786 C443.071,373.919 440.35699999999997,375.295 437.127,376.843 C429.382,380.554 430.027,380.096 430.093,381.837 C430.145,383.219 432.28499999999997,388.864 432.925,389.306 C433.072,389.409 433.899,390.635 434.762,392.032 C437.576,396.587 446.604,404.738 449.19,405.058 C449.278,405.069 449.849,405.399 450.46,405.791 C461.819,413.08 487.72900000000004,415.671 509.50800000000004,411.695 C511.865,411.264 514.508,410.784 515.381,410.628 C519.357,409.916 523.915,408.654 524.2719999999999,408.166 C524.51,407.839 524.863,407.723 525.21,407.856 C525.807,408.085 527.8,407.643 529.3489999999999,406.938 C529.873,406.7 532.6949999999999,405.706 535.62,404.731 C541.482,402.775 546.333,400.836 546.333,400.448 C546.333,400.31 546.512,400.21 546.73,400.225 C547.148,400.253 547.779,399.974 554.435,396.81 C560.1659999999999,394.086 570.218,388.426 571.889,386.983 C572.413,386.53 572.966,386.159 573.117,386.159 C573.9110000000001,386.158 585.26,378.035 585.794,377.087 C585.933,376.838 586.2760000000001,376.635 586.5550000000001,376.635 C587.0840000000001,376.635 589.192,375.032 591.095,373.183 C591.706,372.59 592.633,371.84 593.154,371.518 C595.065,370.337 610.778,355.457 610.778,354.829 C610.778,354.6 610.885,354.444 611.0160000000001,354.483 C611.394,354.595 617.7429999999999,348.36400000000003 618.768,346.874 C619.279,346.131 619.881,345.524 620.106,345.524 C620.331,345.524 621.494,344.488 622.691,343.222 C625.031,340.748 635.8340000000001,329.486 640.381,324.781 C641.909,323.2 643.159,321.721 643.159,321.493 C643.159,321.26599999999996 643.2660000000001,321.10900000000004 643.3969999999999,321.14599999999996 C643.748,321.244 648.6669999999999,315.98699999999997 649.178,314.96799999999996 C649.418,314.488 649.77,314.08500000000004 649.9580000000001,314.073 C650.3589999999999,314.047 652.8009999999999,311.49199999999996 666.0160000000001,297.27099999999996 C667.8489999999999,295.298 670.582,292.38300000000004 672.0889999999999,290.794 C676.299,286.355 677.957,284.48 678.369,283.69 C678.576,283.29200000000003 678.877,283.047 679.037,283.14599999999996 C679.197,283.245 680.511,282.078 681.9580000000001,280.553 C686.71,275.541 693.0550000000001,269.238 699.6600000000001,262.966 C703.236,259.571 707.281,255.687 708.649,254.333 C710.017,252.98 711.21,251.873 711.3,251.873 C711.627,251.873 714.473,249.46 716.492,247.471 C717.627,246.353 719.056,245.116 719.6669999999999,244.722 C720.278,244.328 721.921,242.92 723.317,241.594 C724.7139999999999,240.268 725.951,239.181 726.066,239.179 C726.315,239.174 730.602,235.62 731.361,234.789 C731.6510000000001,234.471 732.96,233.41 734.27,232.429 C737.2629999999999,230.189 740.119,227.751 739.7719999999999,227.732 C739.627,227.724 739.874,227.545 740.321,227.335 C741.472,226.794 747.941,221.712 748.1410000000001,221.19299999999998 C748.232,220.95600000000002 748.44,220.762 748.6030000000001,220.762 C749.15,220.762 752.365,218.152 752.365,217.708 C752.365,217.064 751.698,217.19 746.991,218.725 M439.587,369.25 C440.504,369.314 442.004,369.314 442.921,369.25 C443.837,369.186 443.087,369.133 441.254,369.133 C439.421,369.133 438.671,369.186 439.587,369.25 " stroke="none" fill="#ffffff" fill-rule="evenodd" fill-opacity="1"/><path id="path3" d="M614.36,96.413 C614.447,96.64 614.325,97.176 614.088,97.603 C613.587,98.508 613.533,98.857 613.894,98.857 C614.1659999999999,98.857 615.222,96.83 615.222,96.307 C615.222,96.138 614.9929999999999,96 614.712,96 C614.424,96 614.271,96.18 614.36,96.413 M580.796,126.661 C580.281,127.037 580.265,127.11099999999999 580.698,127.11099999999999 C580.983,127.11099999999999 581.311,126.959 581.4259999999999,126.773 C581.762,126.22800000000001 581.461,126.175 580.796,126.661 M539.94,157.923 C539.23,158.541 539.227,158.558 539.887,158.238 C540.27,158.053 540.672,157.75900000000001 540.779,157.586 C541.091,157.08100000000002 540.749,157.21800000000002 539.94,157.923 M586.2,159.825 C585.883,160.707 585.712,161.51600000000002 585.8199999999999,161.624 C585.928,161.732 586.016,161.582 586.016,161.291 C586.016,161 586.171,160.762 586.36,160.762 C586.549,160.762 586.645,160.58499999999998 586.572,160.368 C586.5,160.151 586.631,159.784 586.863,159.552 C587.327,159.088 587.436,158.222 587.031,158.222 C586.891,158.222 586.517,158.94299999999998 586.2,159.825 M470.18,207.667 C470.201,208.147 470.312,208.96800000000002 470.427,209.49200000000002 C470.733,210.885 471.092,209.75900000000001 470.87,208.103 C470.674,206.64600000000002 470.121,206.297 470.18,207.667 M472.627,221.595 C472.696,222.187 472.88,222.751 473.03499999999997,222.84699999999998 C473.19,222.94299999999998 473.317,223.466 473.317,224.008 C473.317,224.551 473.404,224.908 473.51,224.803 C473.83799999999997,224.474 473.282,220.816 472.881,220.662 C472.618,220.562 472.54,220.849 472.627,221.595 M565.233,222.519 C564.944,223.511 564.768,224.381 564.84,224.454 C564.912,224.526 565.203,223.769 565.487,222.772 C565.77,221.776 565.947,220.905 565.88,220.837 C565.812,220.76999999999998 565.521,221.526 565.233,222.519 M472.43899999999996,244.571 C472.43899999999996,245.183 472.504,245.433 472.584,245.127 C472.664,244.821 472.664,244.321 472.584,244.016 C472.504,243.71 472.43899999999996,243.96 472.43899999999996,244.571 M472.71500000000003,254.095 C472.7,259.10699999999997 472.795,261.399 473.006,261.079 C473.38599999999997,260.501 473.384,248.789 473.003,247.522 C472.841,246.981 472.728,249.547 472.71500000000003,254.095 M477.323,260.683 C477.214,265.528 477.038,270.188 476.932,271.038 C476.788,272.198 476.83799999999997,272.551 477.13599999999997,272.452 C477.729,272.254 478.308,251.873 477.721,251.873 C477.61199999999997,251.873 477.432,255.837 477.323,260.683 M555.31,252.27 C554.819,252.905 554.594,253.744 554.869,253.914 C555.009,254.001 555.275,253.577 555.46,252.972 C555.823,251.791 555.792,251.647 555.31,252.27 M472.445,263.778 C472.449,264.476 472.514,264.725 472.59000000000003,264.33000000000004 C472.666,263.935 472.663,263.363 472.58299999999997,263.06 C472.504,262.756 472.442,263.079 472.445,263.778 M406.582,330.83799999999997 C407.505,330.902 408.933,330.901 409.757,330.836 C410.58,330.77099999999996 409.825,330.71799999999996 408.079,330.719 C406.33299999999997,330.72 405.65999999999997,330.773 406.582,330.83799999999997 M402.206,335.039 C402.206,336.36199999999997 403.26800000000003,340.46299999999997 403.51,340.072 C403.646,339.852 403.639,339.524 403.495,339.344 C403.228,339.01 402.524,336.01300000000003 402.524,335.212 C402.524,334.97 402.91700000000003,334.71299999999997 403.397,334.64 C404.209,334.517 404.198,334.505 403.238,334.46000000000004 C402.407,334.422 402.206,334.534 402.206,335.039 M405.068,345.762 C405.077,346.196 405.661,346.937 405.847,346.751 C406.097,346.5 405.699,345.524 405.347,345.524 C405.19100000000003,345.524 405.06600000000003,345.631 405.068,345.762 M416.721,346.16200000000003 C416.116,346.87 416.003,347.254 416.49,346.953 C416.802,346.76099999999997 417.56100000000004,345.524 417.367,345.524 C417.313,345.524 417.022,345.81100000000004 416.721,346.16200000000003 " stroke="none" fill="#ffffff" fill-rule="evenodd" fill-opacity="1"/><path id="path4" d="M579.646,127.612 C579.428,127.875 579.566,127.934 580.145,127.82300000000001 C580.585,127.739 581.005,127.57499999999999 581.077,127.459 C581.306,127.088 579.962,127.232 579.646,127.612 M593.261,142.546 C592.971,143.352 592.852,143.888 592.996,143.736 C593.412,143.299 594.261,141.079 594.013,141.079 C593.89,141.079 593.5509999999999,141.739 593.261,142.546 M586.0509999999999,159.21 C585.856,159.77100000000002 585.751,160.285 585.819,160.353 C585.887,160.421 586.102,160.018 586.298,159.457 C586.494,158.89600000000002 586.598,158.381 586.53,158.313 C586.462,158.245 586.2470000000001,158.649 586.0509999999999,159.21 M575.227,190.524 C575.2239999999999,191.091 575.365,191.55599999999998 575.54,191.55599999999998 C575.943,191.55599999999998 575.943,190.59199999999998 575.54,189.96800000000002 C575.306,189.607 575.231,189.74099999999999 575.227,190.524 M470.903,209.16500000000002 C470.885,210.644 470.994,211.777 471.146,211.683 C471.43600000000004,211.503 471.398,206.476 471.106,206.476 C471.01300000000003,206.477 470.922,207.687 470.903,209.16500000000002 M532.321,209.889 C531.407,210.99099999999999 531.02,211.55599999999998 531.177,211.55599999999998 C531.265,211.55599999999998 531.719,211.05599999999998 532.185,210.44400000000002 C533.05,209.31 533.155,208.882 532.321,209.889 M473.733,224.73 C473.735,225.778 473.794,226.168 473.865,225.597 C473.93600000000004,225.027 473.93399999999997,224.17 473.86199999999997,223.69299999999998 C473.789,223.216 473.73199999999997,223.683 473.733,224.73 M512.157,239.653 C511.95500000000004,240.088 511.89599999999996,240.444 512.027,240.444 C512.157,240.444 512.4259999999999,240.087 512.625,239.651 C512.8240000000001,239.214 512.8820000000001,238.858 512.755,238.86 C512.6279999999999,238.861 512.359,239.218 512.157,239.653 M478.217,259.81 C478.217,264.262 478.262,266.08299999999997 478.317,263.85699999999997 C478.371,261.631 478.371,257.988 478.317,255.762 C478.262,253.536 478.217,255.35699999999997 478.217,259.81 M554.292,253.838 C554.28,254.308 554.413,254.781 554.587,254.889 C554.966,255.123 554.966,254.501 554.587,253.619 C554.344,253.052 554.312,253.076 554.292,253.838 M477.842,269.175 C477.845,269.873 477.90999999999997,270.121 477.986,269.726 C478.062,269.332 478.05899999999997,268.76 477.98,268.457 C477.901,268.153 477.83799999999997,268.476 477.842,269.175 M465.698,308.653 C465.698,308.802 465.18399999999997,309.598 464.556,310.421 C463.928,311.243 463.479,311.98199999999997 463.55899999999997,312.062 C463.64,312.142 464.052,311.74 464.475,311.16700000000003 C465.817,309.356 466.358,308.381 466.023,308.381 C465.845,308.381 465.698,308.503 465.698,308.653 M451.259,329.879 L450.701,330.762 L451.43600000000004,330.05600000000004 C451.84000000000003,329.668 452.091,329.27099999999996 451.994,329.174 C451.896,329.076 451.565,329.39300000000003 451.259,329.879 M508.377,334.75 C507.831,335.321 507.66700000000003,335.63800000000003 507.981,335.517 C508.437,335.34299999999996 509.727,333.778 509.416,333.778 C509.35699999999997,333.778 508.89,334.21500000000003 508.377,334.75 M404.03499999999997,334.95500000000004 C404.43,335.031 405.002,335.028 405.305,334.948 C405.609,334.869 405.286,334.807 404.587,334.81 C403.889,334.81399999999996 403.641,334.879 404.03499999999997,334.95500000000004 M403.676,339.889 C403.406,340.89599999999996 403.431,341.714 403.73199999999997,341.714 C403.872,341.714 404.021,341.14300000000003 404.062,340.44399999999996 C404.145,339.039 403.971,338.789 403.676,339.889 M427.603,367.092 C427.603,367.352 430.187,368.125 430.38800000000003,367.924 C430.447,367.866 429.844,367.596 429.049,367.325 C428.254,367.054 427.603,366.949 427.603,367.092 M449.19,368.381 C448.767,368.654 448.767,368.689 449.19,368.689 C449.452,368.689 449.881,368.55 450.14300000000003,368.381 C450.56600000000003,368.107 450.56600000000003,368.073 450.14300000000003,368.073 C449.881,368.073 449.452,368.212 449.19,368.381 M440.073,368.932 C440.908,368.998 442.193,368.997 442.93,368.93 C443.66700000000003,368.864 442.984,368.81 441.413,368.811 C439.841,368.812 439.238,368.867 440.073,368.932 " stroke="none" fill="#ffffff" fill-rule="evenodd" fill-opacity="1"/></g></g></svg>